<svg width="59" height="59" viewBox="0 0 59 59" fill="none" xmlns="http://www.w3.org/2000/svg">
<rect width="59" height="59" rx="29.5" fill="black"/>
<path d="M28.2917 19.833H19.8334C19.1925 19.833 18.5778 20.0876 18.1246 20.5408C17.6714 20.994 17.4167 21.6087 17.4167 22.2497V39.1663C17.4167 39.8073 17.6714 40.422 18.1246 40.8752C18.5778 41.3284 19.1925 41.583 19.8334 41.583H36.7501C37.391 41.583 38.0057 41.3284 38.4589 40.8752C38.9121 40.422 39.1667 39.8073 39.1667 39.1663V30.708" stroke="white" stroke-width="2.41464" stroke-linecap="round" stroke-linejoin="round"/>
<path d="M37.3542 18.0208C37.835 17.5401 38.4869 17.27 39.1667 17.27C39.8466 17.27 40.4985 17.5401 40.9792 18.0208C41.46 18.5015 41.73 19.1535 41.73 19.8333C41.73 20.5131 41.46 21.1651 40.9792 21.6458L29.5001 33.1249L24.6667 34.3333L25.8751 29.4999L37.3542 18.0208Z" fill="white" stroke="white" stroke-width="2.41464" stroke-linecap="round" stroke-linejoin="round"/>
</svg>
