<svg width="168" height="168" viewBox="0 0 168 168" fill="none" xmlns="http://www.w3.org/2000/svg">
<path d="M83.9999 126C86.3799 126 88.3764 125.194 89.9892 123.581C91.6019 121.968 92.4055 119.974 92.3999 117.6C92.3943 115.226 91.5879 113.232 89.9807 111.619C88.3735 110.006 86.3799 109.2 83.9999 109.2C81.6199 109.2 79.6264 110.006 78.0191 111.619C76.4119 113.232 75.6056 115.226 75.6 117.6C75.5944 119.974 76.4007 121.971 78.0191 123.589C79.6376 125.208 81.6311 126.011 83.9999 126ZM75.6 83.9999C75.6 88.6391 79.3608 92.3999 83.9999 92.3999C88.6391 92.3999 92.3999 88.6391 92.3999 83.9999V50.4C92.3999 45.7608 88.6391 42 83.9999 42C79.3608 42 75.6 45.7608 75.6 50.4V83.9999ZM83.9999 168C72.38 168 61.46 165.793 51.24 161.381C41.02 156.968 32.13 150.984 24.57 143.43C17.01 135.876 11.0264 126.986 6.61921 116.76C2.21201 106.534 0.00561063 95.6143 1.06329e-05 83.9999C-0.00558936 72.3855 2.20081 61.4656 6.61921 51.24C11.0376 41.0144 17.0212 32.1244 24.57 24.57C32.1188 17.0156 41.0088 11.032 51.24 6.6192C61.4712 2.2064 72.3912 0 83.9999 0C95.6087 0 106.529 2.2064 116.76 6.6192C126.991 11.032 135.881 17.0156 143.43 24.57C150.979 32.1244 156.965 41.0144 161.389 51.24C165.813 61.4656 168.017 72.3855 168 83.9999C167.983 95.6143 165.777 106.534 161.381 116.76C156.985 126.986 151.001 135.876 143.43 143.43C135.859 150.984 126.969 156.971 116.76 161.389C106.551 165.807 95.6311 168.011 83.9999 168ZM83.9999 151.2C102.76 151.2 118.65 144.69 131.67 131.67C144.69 118.65 151.2 102.76 151.2 83.9999C151.2 65.24 144.69 49.35 131.67 36.33C118.65 23.31 102.76 16.8 83.9999 16.8C65.24 16.8 49.35 23.31 36.33 36.33C23.31 49.35 16.8 65.24 16.8 83.9999C16.8 102.76 23.31 118.65 36.33 131.67C49.35 144.69 65.24 151.2 83.9999 151.2Z" fill="black"/>
</svg>
