<svg width="18" height="20" viewBox="0 0 18 20" fill="none" xmlns="http://www.w3.org/2000/svg">
<path d="M10.2 1.025C9.85381 0.765356 9.43274 0.625 9 0.625C8.56726 0.625 8.14619 0.765356 7.8 1.025L0.8 6.275C0.551608 6.46129 0.350001 6.70286 0.211146 6.98057C0.0722902 7.25828 0 7.56451 0 7.875V17.375C0 17.9054 0.210714 18.4141 0.585786 18.7892C0.960859 19.1643 1.46957 19.375 2 19.375H5.9C6.19174 19.375 6.47153 19.2591 6.67782 19.0528C6.88411 18.8465 7 18.5667 7 18.275V13.375C7 12.8446 7.21071 12.3359 7.58579 11.9608C7.96086 11.5857 8.46957 11.375 9 11.375C9.53043 11.375 10.0391 11.5857 10.4142 11.9608C10.7893 12.3359 11 12.8446 11 13.375V18.275C11 18.5667 11.1159 18.8465 11.3222 19.0528C11.5285 19.2591 11.8083 19.375 12.1 19.375H16C16.5304 19.375 17.0391 19.1643 17.4142 18.7892C17.7893 18.4141 18 17.9054 18 17.375V7.875C18 7.56451 17.9277 7.25828 17.7889 6.98057C17.65 6.70286 17.4484 6.46129 17.2 6.275L10.2 1.025Z"/>
</svg>
