<svg width="24" height="24" viewBox="0 0 24 24" fill="none" xmlns="http://www.w3.org/2000/svg">
<path fill-rule="evenodd" clip-rule="evenodd" d="M3.255 4.167C3.12938 4.02033 3.04844 3.84071 3.02178 3.64944C2.99512 3.45817 3.02385 3.26327 3.10457 3.08783C3.18529 2.9124 3.31461 2.76378 3.47722 2.65959C3.63982 2.55541 3.82888 2.50002 4.022 2.5H16.5C17.0909 2.5 17.6761 2.6164 18.2221 2.84254C18.768 3.06869 19.2641 3.40016 19.682 3.81802C20.0998 4.23588 20.4313 4.73196 20.6575 5.27792C20.8836 5.82389 21 6.40905 21 7C21 7.59095 20.8836 8.17611 20.6575 8.72208C20.4313 9.26804 20.0998 9.76412 19.682 10.182C19.2641 10.5998 18.768 10.9313 18.2221 11.1575C17.6761 11.3836 17.0909 11.5 16.5 11.5H4.022C3.82888 11.5 3.63982 11.4446 3.47722 11.3404C3.31461 11.2362 3.18529 11.0876 3.10457 10.9122C3.02385 10.7367 2.99512 10.5418 3.02178 10.3506C3.04844 10.1593 3.12938 9.97967 3.255 9.833L4.009 8.953C4.47512 8.40925 4.73134 7.71669 4.73134 7.0005C4.73134 6.28431 4.47512 5.59175 4.009 5.048L3.255 4.167ZM6.062 4.5C6.50084 5.2601 6.73187 6.12232 6.73187 7C6.73187 7.87768 6.50084 8.7399 6.062 9.5H16.5C17.163 9.5 17.7989 9.23661 18.2678 8.76777C18.7366 8.29893 19 7.66304 19 7C19 6.33696 18.7366 5.70107 18.2678 5.23223C17.7989 4.76339 17.163 4.5 16.5 4.5H6.062ZM3 17C3 15.8065 3.47411 14.6619 4.31802 13.818C5.16193 12.9741 6.30653 12.5 7.5 12.5H19.978C20.1711 12.5 20.3602 12.5554 20.5228 12.6596C20.6854 12.7638 20.8147 12.9124 20.8954 13.0878C20.9762 13.2633 21.0049 13.4582 20.9782 13.6494C20.9516 13.8407 20.8706 14.0203 20.745 14.167L19.99 15.047C19.5239 15.5907 19.2677 16.2833 19.2677 16.9995C19.2677 17.7157 19.5239 18.4083 19.99 18.952L20.745 19.832C20.8709 19.9787 20.9521 20.1584 20.979 20.3498C21.0058 20.5412 20.9771 20.7363 20.8964 20.912C20.8156 21.0876 20.6862 21.2363 20.5234 21.3406C20.3606 21.4448 20.1713 21.5001 19.978 21.5H7.5C6.30653 21.5 5.16193 21.0259 4.31802 20.182C3.47411 19.3381 3 18.1935 3 17ZM7.5 14.5C6.83696 14.5 6.20107 14.7634 5.73223 15.2322C5.26339 15.7011 5 16.337 5 17C5 17.663 5.26339 18.2989 5.73223 18.7678C6.20107 19.2366 6.83696 19.5 7.5 19.5H17.938C17.4992 18.7399 17.2681 17.8777 17.2681 17C17.2681 16.1223 17.4992 15.2601 17.938 14.5H7.5Z"/>
</svg>
