<svg width="156" height="156" viewBox="0 0 156 156" fill="none" xmlns="http://www.w3.org/2000/svg">
<path d="M103.64 28.73H124.154C124.154 28.73 122.34 25.4287 117.06 25.9092C112.016 26.3682 111.76 24.2852 109.196 24.0288C106.632 23.7723 104.495 25.7382 103.64 28.73Z" fill="#E0E0E0"/>
<path d="M50.0203 82.9597C50.0203 82.9597 47.9652 84.0714 50.9573 88.3636C53.9494 92.6557 55.8962 94.7168 55.8962 94.7168C55.8962 94.7168 56.4619 95.7311 55.5827 96.0219C54.7035 96.3127 52.673 96.2696 52.4234 97.4293C52.1644 98.6318 53.145 99.5974 54.9618 100.313C56.7789 101.028 60.7023 102.741 61.0564 102.897C61.4043 103.05 61.7943 103.505 61.2271 103.799C60.6598 104.093 56.2557 105.175 56.894 107.235C57.5327 109.294 62.9218 110.454 63.5087 110.592C64.0953 110.731 64.2613 110.948 64.2578 111.26C64.2547 111.572 62.7399 111.797 61.4997 112.156C60.2595 112.515 58.8846 113.149 59.3529 114.306C59.8209 115.463 63.2079 117.563 70.6888 117.269L74.1463 116.906L75.6187 113.74C78.3568 106.772 77.4876 102.882 76.5487 102.06C75.6099 101.237 74.5591 102.327 73.8122 103.38C73.0653 104.433 72.3552 105.79 72.0594 105.69C71.7636 105.591 71.6126 105.363 71.675 104.763C71.7374 104.164 72.4138 98.6926 70.6794 97.4122C68.9447 96.1317 66.4743 99.9353 66.0097 100.374C65.5454 100.813 65.2444 100.295 65.2141 99.9163C65.1829 99.5303 64.8559 95.2619 64.7779 93.3109C64.7002 91.3597 64.1109 90.1161 62.89 89.9654C61.7128 89.82 61.0857 91.7516 60.5219 92.4863C59.9582 93.2211 59.1863 92.3534 59.1863 92.3534C59.1863 92.3534 57.8805 89.8371 54.8108 85.5999C51.7413 81.3626 49.9801 82.9859 49.9801 82.9859" fill="#EBEBEB"/>
<path d="M74.436 117.691C72.1939 114.57 68.3024 108.956 64.9359 104.154C61.5707 99.3537 58.5202 95.01 56.2941 91.8785C55.1815 90.3163 54.2802 89.0511 53.654 88.1722C53.3445 87.7373 53.1036 87.3982 52.9367 87.1639C52.8577 87.0506 52.7963 86.9629 52.7523 86.8999C52.7114 86.84 52.6924 86.8079 52.6924 86.8079C52.6924 86.8079 52.717 86.8359 52.761 86.8934C52.8072 86.9548 52.8712 87.0403 52.9542 87.1507C53.1245 87.3823 53.3713 87.7173 53.6877 88.1473C54.3238 89.0134 55.2352 90.2729 56.3559 91.8336C58.5979 94.9542 61.6589 99.2913 65.0239 104.092C68.39 108.894 72.2716 114.514 74.4974 117.646" fill="#E0E0E0"/>
<path d="M55.2608 97.6048C55.2623 97.5976 55.3509 97.6101 55.5101 97.6385C55.6692 97.6665 55.8982 97.7137 56.1805 97.7745C56.7449 97.8977 57.5203 98.0874 58.3717 98.3124C59.2107 98.5373 59.9695 98.7404 60.5498 98.8961C60.8119 98.9645 61.0328 99.0225 61.2106 99.0687C61.3669 99.1086 61.4527 99.1345 61.4512 99.1417C61.4496 99.1489 61.361 99.1373 61.2016 99.1099C61.0424 99.0815 60.8131 99.034 60.5314 98.9701C59.9679 98.8415 59.1954 98.6415 58.3439 98.4166C57.5037 98.1979 56.7437 98.0001 56.1624 97.8488C55.9001 97.7817 55.6785 97.7249 55.5004 97.6793C55.345 97.6385 55.2592 97.6119 55.2608 97.6048Z" fill="#E0E0E0"/>
<path d="M61.6566 98.8893C61.6273 98.883 61.9484 97.2675 62.3733 95.2813C62.7983 93.2945 63.1664 91.6896 63.1957 91.6958C63.2248 91.7021 62.904 93.3173 62.4791 95.3041C62.0541 97.2903 61.686 98.8955 61.6566 98.8893Z" fill="#E0E0E0"/>
<path d="M66.4926 106.495C66.4861 106.491 66.526 106.409 66.6031 106.263C66.6917 106.099 66.8025 105.893 66.9341 105.649C67.2127 105.13 67.5943 104.412 67.9865 103.604C68.3805 102.797 68.7119 102.054 68.9471 101.514C69.0582 101.26 69.1518 101.046 69.2267 100.875C69.2935 100.724 69.3337 100.642 69.3409 100.645C69.3477 100.648 69.3209 100.735 69.266 100.891C69.2111 101.046 69.1275 101.27 69.018 101.544C68.8002 102.092 68.4791 102.842 68.0838 103.652C67.6907 104.462 67.2973 105.176 67.0009 105.686C66.8518 105.941 66.7288 106.145 66.6396 106.284C66.551 106.424 66.4992 106.499 66.4926 106.495Z" fill="#E0E0E0"/>
<path d="M60.4521 106.607C60.4518 106.599 60.5358 106.59 60.6877 106.578C60.8627 106.568 61.078 106.556 61.3317 106.541C61.8755 106.514 62.6271 106.485 63.4576 106.459C64.2882 106.433 65.0404 106.416 65.5849 106.408C65.8391 106.407 66.0544 106.406 66.2298 106.405C66.382 106.407 66.4666 106.412 66.4669 106.419C66.4672 106.426 66.3833 106.436 66.2313 106.447C66.0563 106.457 65.841 106.47 65.5874 106.485C65.0432 106.511 64.2916 106.541 63.4611 106.567C62.6308 106.593 61.8786 106.61 61.3342 106.617C61.0802 106.619 60.8646 106.62 60.6893 106.62C60.5367 106.619 60.4525 106.614 60.4521 106.607Z" fill="#E0E0E0"/>
<path d="M63.8684 113.864C63.8681 113.857 63.9757 113.845 64.1704 113.831C64.3854 113.818 64.6628 113.801 64.9957 113.78C65.6927 113.742 66.6555 113.697 67.7197 113.653C68.784 113.61 69.7477 113.576 70.4454 113.558C70.7789 113.551 71.0566 113.546 71.2719 113.541C71.4672 113.54 71.5751 113.542 71.5754 113.55C71.5757 113.557 71.4681 113.569 71.2734 113.583C71.0584 113.596 70.7811 113.614 70.4482 113.634C69.7512 113.672 68.788 113.718 67.7238 113.761C66.6599 113.805 65.6964 113.838 64.9985 113.857C64.6649 113.863 64.3873 113.869 64.172 113.873C63.9767 113.874 63.8684 113.872 63.8684 113.864Z" fill="#E0E0E0"/>
<path d="M71.3888 113.506C71.3822 113.503 71.4297 113.397 71.5214 113.209C71.6225 113.004 71.7541 112.737 71.9129 112.415C72.2427 111.745 72.6945 110.817 73.1644 109.779C73.6361 108.741 74.038 107.79 74.3244 107.1C74.4623 106.768 74.5765 106.493 74.6642 106.282C74.7453 106.09 74.7933 105.984 74.8002 105.987C74.8071 105.99 74.7724 106.1 74.7035 106.298C74.6345 106.495 74.5303 106.779 74.3955 107.128C74.1272 107.826 73.7353 108.783 73.263 109.823C72.7922 110.863 72.3288 111.788 71.9813 112.45C71.8066 112.781 71.6627 113.047 71.5588 113.229C71.4552 113.411 71.3953 113.509 71.3888 113.506Z" fill="#E0E0E0"/>
<path d="M100.402 67.4628C96.6878 63.2985 97.0454 57.2869 98.4506 52.1399C98.6849 51.2806 98.8063 50.3449 99.3982 49.6825C99.9903 49.0205 101.075 48.7288 101.764 49.2773C102.335 49.7325 102.438 50.5471 102.652 51.251C102.935 52.1876 103.487 53.0378 104.224 53.6724C104.707 54.0892 105.348 54.4259 105.964 54.2546C106.808 54.0193 107.141 53.0081 107.34 52.1452C107.71 50.5371 108.08 48.9291 108.451 47.3216C108.649 46.459 108.855 45.5788 109.317 44.8247C109.778 44.0706 110.55 43.4513 111.424 43.4157C112.298 43.3805 113.199 44.0928 113.173 44.977C113.161 45.3448 113.004 45.6924 112.943 46.0552C112.882 46.4187 112.955 46.8536 113.271 47.0337C113.591 47.2162 113.994 47.0536 114.311 46.8624C115.406 46.2031 116.275 45.2256 117.103 44.245C117.93 43.2644 118.748 42.2532 119.78 41.4957C120.811 40.7381 122.105 40.2508 123.355 40.4729C124.606 40.6954 125.74 41.768 125.765 43.0532C125.79 44.3417 124.789 45.406 123.785 46.2066C122.296 47.3943 120.637 48.3634 118.878 49.0745C118.561 49.203 118.217 49.3412 118.038 49.6357C117.714 50.1658 118.123 50.865 118.646 51.1883C119.237 51.5542 119.95 51.6525 120.603 51.8909C121.256 52.1289 121.913 52.5979 122.017 53.2927C122.161 54.2568 121.206 55.0053 120.338 55.438C118.601 56.3047 116.718 56.8685 114.797 57.0975C114.108 57.1793 113.393 57.2248 112.776 57.549C112.16 57.8735 111.668 58.5745 111.833 59.2544C111.998 59.9352 112.745 60.3171 113.438 60.3508C114.13 60.3851 114.81 60.1654 115.499 60.0765C116.789 59.9102 118.298 60.3539 118.814 61.5566C119.153 62.3472 118.975 63.2942 118.533 64.0361C118.091 64.778 117.416 65.3474 116.723 65.8557C114.298 67.6322 111.445 68.849 108.473 69.1507C105.501 69.4524 102.895 69.1073 100.402 67.4628Z" fill="#F5F5F5"/>
<path d="M101.156 67.9621C101.83 65.9509 101.125 66.9606 102.513 64.526C103.897 62.0884 105.636 59.5421 107.546 56.9413C108.025 56.293 108.5 55.6524 108.967 55.021C109.435 54.392 109.899 53.7677 110.39 53.1855C111.369 52.0164 112.398 50.9668 113.407 50.0012C114.415 49.0346 115.407 48.1545 116.341 47.3383C117.277 46.5236 118.163 45.7808 119 45.1381C120.671 43.8464 122.139 42.9656 123.171 42.4024C123.688 42.1191 124.095 41.9123 124.373 41.7759C124.506 41.7117 124.611 41.6608 124.69 41.6227C124.761 41.5894 124.799 41.5735 124.8 41.5756C124.802 41.5781 124.767 41.5994 124.697 41.6377C124.62 41.6795 124.517 41.7348 124.387 41.8053C124.114 41.951 123.712 42.1666 123.201 42.458C122.18 43.038 120.727 43.9303 119.07 45.2301C118.24 45.8769 117.36 46.6229 116.429 47.4409C115.5 48.2612 114.513 49.1438 113.509 50.1107C112.506 51.077 111.483 52.125 110.512 53.289C110.024 53.8687 109.565 54.4878 109.096 55.1189C108.629 55.7501 108.156 56.3906 107.676 57.0387C105.768 59.6373 104.03 62.1748 102.643 64.6012C101.252 67.0242 101.951 66.0002 101.264 67.9995" fill="#E0E0E0"/>
<path d="M110.437 53.191C110.425 53.1901 110.427 53.0525 110.439 52.8035C110.451 52.5546 110.478 52.1954 110.52 51.7521C110.601 50.8654 110.755 49.6452 110.93 48.3001C111.106 46.9545 111.242 45.7352 111.309 44.85C111.344 44.4076 111.369 44.0488 111.383 43.8011C111.398 43.5531 111.412 43.4158 111.424 43.4158C111.435 43.4158 111.442 43.5534 111.446 43.8023C111.452 44.0513 111.444 44.412 111.424 44.8569C111.385 45.7473 111.267 46.9735 111.091 48.3204C110.915 49.647 110.756 50.8473 110.634 51.7646C110.581 52.1792 110.537 52.5287 110.502 52.8092C110.471 53.0556 110.448 53.192 110.437 53.191Z" fill="#E0E0E0"/>
<path d="M122.003 53.7409C122.001 53.7522 121.839 53.7331 121.549 53.6892C121.259 53.647 120.839 53.584 120.318 53.5229C119.278 53.3918 117.834 53.2617 116.236 53.1875C114.636 53.1163 113.186 53.1132 112.137 53.1416C111.613 53.1519 111.188 53.1719 110.895 53.1837C110.601 53.1968 110.439 53.1987 110.437 53.1875C110.436 53.1759 110.598 53.1528 110.891 53.1198C111.183 53.0886 111.608 53.0508 112.134 53.0252C113.184 52.9672 114.64 52.9516 116.244 53.023C117.848 53.0976 119.295 53.2467 120.335 53.4077C120.855 53.4839 121.273 53.5647 121.56 53.6264C121.848 53.6898 122.005 53.7297 122.003 53.7409Z" fill="#E0E0E0"/>
<path d="M102.697 64.3543C102.692 64.3552 102.677 64.3028 102.653 64.2014C102.628 64.081 102.597 63.9337 102.559 63.7559C102.478 63.3687 102.377 62.8052 102.261 62.1076C102.027 60.7123 101.765 58.7745 101.504 56.6326C101.243 54.4898 100.999 52.5522 100.795 51.1542C100.693 50.474 100.61 49.9146 100.548 49.4987C100.522 49.3184 100.501 49.1699 100.483 49.0479C100.47 48.9446 100.466 48.8897 100.472 48.8884C100.478 48.8878 100.492 48.9402 100.516 49.0419C100.542 49.1624 100.573 49.309 100.61 49.4872C100.691 49.8744 100.792 50.4378 100.909 51.1355C101.142 52.5307 101.405 54.4686 101.665 56.6114C101.926 58.7536 102.17 60.6908 102.374 62.0892C102.476 62.769 102.559 63.3287 102.621 63.7443C102.647 63.9246 102.668 64.0735 102.686 64.1955C102.699 64.2984 102.703 64.3533 102.697 64.3543Z" fill="#E0E0E0"/>
<path d="M118.539 63.0959C118.539 63.1015 118.483 63.1102 118.378 63.1215C118.254 63.1327 118.102 63.1467 117.917 63.1636C117.492 63.1982 116.918 63.2447 116.22 63.3009C114.787 63.4172 112.81 63.6007 110.625 63.8063C108.44 64.0122 106.459 64.1776 105.024 64.2643C104.306 64.308 103.725 64.3373 103.323 64.3495C103.137 64.3539 102.984 64.3576 102.86 64.3607C102.754 64.3617 102.698 64.3588 102.698 64.3532C102.697 64.3476 102.753 64.3389 102.858 64.3273C102.982 64.3161 103.135 64.3024 103.319 64.2855C103.745 64.2509 104.318 64.2047 105.016 64.1482C106.449 64.0322 108.426 63.8484 110.612 63.6428C112.796 63.4369 114.777 63.2715 116.213 63.1851C116.931 63.1414 117.512 63.1121 117.914 63.0999C118.1 63.0956 118.253 63.0915 118.377 63.0887C118.483 63.0874 118.538 63.0899 118.539 63.0959Z" fill="#E0E0E0"/>
<path d="M130.826 94.8467C130.83 94.8483 130.812 94.8979 130.774 94.9924C130.731 95.0963 130.675 95.2342 130.603 95.4083C130.445 95.7818 130.221 96.31 129.938 96.9764C129.351 98.3333 128.523 100.25 127.534 102.538L127.519 102.572L127.482 102.578C125.264 102.944 122.678 103.372 119.926 103.826C119.063 103.967 118.217 104.106 117.393 104.241L117.278 104.259L117.306 104.146C117.922 101.716 118.489 99.4783 118.971 97.5773L119.006 97.65C117.161 96.8254 115.639 96.1449 114.566 95.6654C114.045 95.428 113.633 95.2405 113.341 95.1072C113.208 95.0445 113.103 94.9949 113.022 94.9565C112.95 94.9216 112.914 94.9023 112.915 94.8991C112.916 94.8963 112.955 94.9097 113.029 94.9391C113.112 94.9731 113.22 95.0174 113.356 95.0729C113.651 95.1986 114.068 95.3755 114.595 95.5999C115.673 96.0676 117.203 96.7312 119.057 97.5352L119.106 97.5561L119.093 97.6079C118.619 99.5105 118.061 101.751 117.455 104.184L117.368 104.089C118.193 103.954 119.039 103.815 119.901 103.673C122.654 103.225 125.242 102.805 127.461 102.444L127.409 102.484C128.42 100.205 129.266 98.2956 129.865 96.9443C130.162 96.2841 130.398 95.7609 130.565 95.3912C130.645 95.2205 130.707 95.0851 130.755 94.9837C130.798 94.892 130.823 94.8452 130.826 94.8467Z" fill="#E0E0E0"/>
<path d="M118.279 103.352L118.072 103.896L118.403 104.374L117.822 104.346L117.469 104.808L117.317 104.247L116.768 104.054L117.255 103.736L117.268 103.154L117.721 103.518L118.279 103.352Z" fill="#E0E0E0"/>
<path d="M113.089 94.536L112.987 94.8065L113.151 95.0443L112.862 95.0302L112.687 95.2602L112.611 94.9812L112.338 94.8852L112.58 94.727L112.587 94.4377L112.812 94.619L113.089 94.536Z" fill="#E0E0E0"/>
<path d="M127.745 102.199L127.642 102.469L127.807 102.707L127.517 102.693L127.342 102.923L127.266 102.644L126.993 102.548L127.235 102.39L127.242 102.1L127.467 102.282L127.745 102.199Z" fill="#E0E0E0"/>
<path d="M119.288 97.3336L119.185 97.6041L119.35 97.8422L119.061 97.8278L118.885 98.0581L118.809 97.7788L118.536 97.6831L118.778 97.5246L118.785 97.2354L119.011 97.4166L119.288 97.3336Z" fill="#E0E0E0"/>
<path d="M131.178 94.577L131.075 94.8475L131.24 95.0856L130.951 95.0716L130.776 95.3015L130.7 95.0223L130.427 94.9265L130.669 94.768L130.675 94.4788L130.901 94.66L131.178 94.577Z" fill="#E0E0E0"/>
<path d="M36.6116 117.282H52.9448C52.9448 117.282 51.5005 114.653 47.296 115.036C43.2806 115.401 43.0765 113.743 41.0348 113.539C38.9934 113.335 37.292 114.9 36.6116 117.282Z" fill="#E0E0E0"/>
<path d="M39.8555 52.9736H56.1887C56.1887 52.9736 54.7444 50.3453 50.5402 50.7278C46.5248 51.0932 46.3207 49.4349 44.279 49.2305C42.2373 49.0262 40.5359 50.5915 39.8555 52.9736Z" fill="#F5F5F5"/>
<path d="M122.809 64.3374H136.229C136.229 64.3374 135.043 62.1777 131.588 62.4922C128.289 62.7924 128.121 61.4299 126.444 61.262C124.766 61.0941 123.368 62.3802 122.809 64.3374Z" fill="#F5F5F5"/>
<path d="M96.0123 90.8222C96.6785 85.7934 93.1432 81.6447 88.7253 79.1515C84.3074 76.6583 79.1824 75.8241 74.3031 74.4375C69.7011 73.1299 65.124 71.2224 61.7154 67.8653C58.3068 64.5081 56.262 59.4615 57.4875 54.8371C57.7952 53.6758 58.3449 52.5096 59.3421 51.8397C60.3392 51.1698 61.8615 51.187 62.6053 52.1302C64.1893 54.1391 61.1027 57.7371 63.0355 59.4129C63.4792 59.7976 64.0894 59.9392 64.5487 60.3052C65.7708 61.2799 65.3752 63.1746 65.5477 64.7284C65.8891 67.8013 68.7704 69.9351 71.6002 71.1799C75.3904 72.8476 79.4966 73.6313 83.5177 74.6197C87.5387 75.6082 91.5932 76.8533 94.9431 79.2873C98.2931 81.7212 101.199 85.5313 101.176 89.6719C101.17 90.8291 101.022 92.2518 100.296 93.1525C99.5704 94.0533 98.6453 94.2405 97.5982 93.7478C96.5508 93.2549 95.8183 92.493 96.0123 90.8222Z" fill="#E8505B"/>
<g opacity="0.8">
<path d="M96.0123 90.8229C96.6785 85.7941 93.1432 81.6455 88.7253 79.1523C84.3074 76.6591 79.1824 75.8248 74.3031 74.4383C69.7011 73.1307 65.124 71.2231 61.7154 67.866C58.3068 64.5089 56.262 59.4623 57.4875 54.8378C57.7952 53.6765 58.3449 52.5103 59.3421 51.8404C60.3392 51.1706 61.8615 51.1877 62.6053 52.1309C64.1893 54.1399 61.1027 57.7378 63.0355 59.4136C63.4792 59.7983 64.0894 59.9399 64.5487 60.3059C65.7708 61.2806 65.3752 63.1754 65.5477 64.7291C65.8891 67.802 68.7704 69.9358 71.6002 71.1807C75.3904 72.8483 79.4966 73.6321 83.5177 74.6205C87.5387 75.6089 91.5932 76.8541 94.9431 79.288C98.2931 81.7219 101.199 85.532 101.176 89.6726C101.17 90.8298 101.022 92.2525 100.296 93.1533C99.5704 94.054 98.6453 94.2412 97.5982 93.7485C96.5508 93.2556 95.8183 92.4937 96.0123 90.8229Z" fill="white"/>
</g>
<path d="M74.6394 50.848C74.4803 48.9853 75.8678 47.3635 77.4459 46.494C79.024 45.6245 80.8314 45.2713 82.4585 44.5C86.4979 42.585 89.0666 38.0781 89.2563 33.4552C89.446 28.8323 87.4423 24.2122 84.307 20.8167C83.0332 19.4371 81.466 17.9916 81.4473 16.1093C81.4276 14.1452 83.3327 12.5974 85.2356 12.6224C87.1384 12.6473 88.8919 13.9209 90.031 15.5233C91.1701 17.1258 91.8003 19.0352 92.4137 20.91C91.9766 20.1263 92.8743 19.1553 93.7391 19.2389C94.604 19.3226 95.2866 20.0439 95.8205 20.7624C98.1127 23.8487 99.2475 27.8136 98.9311 31.6335C98.6147 35.4533 96.851 39.0884 94.0954 41.6003C91.0175 44.4058 86.9441 45.7221 82.9963 46.9679C80.2492 47.8347 77.502 48.7017 74.7546 49.5685" fill="#E8505B"/>
<g opacity="0.8">
<path d="M74.6394 50.8482C74.4803 48.9856 75.8678 47.3638 77.4459 46.4942C79.024 45.6247 80.8314 45.2715 82.4585 44.5003C86.4979 42.5852 89.0666 38.0784 89.2563 33.4555C89.446 28.8326 87.4423 24.2125 84.307 20.817C83.0332 19.4373 81.466 17.9918 81.4473 16.1095C81.4276 14.1455 83.3327 12.5977 85.2356 12.6226C87.1384 12.6476 88.8919 13.9212 90.031 15.5236C91.1701 17.126 91.8003 19.0355 92.4137 20.9103C91.9766 20.1265 92.8743 19.1556 93.7391 19.2392C94.604 19.3228 95.2866 20.0442 95.8205 20.7627C98.1127 23.849 99.2475 27.8139 98.9311 31.6337C98.6147 35.4535 96.851 39.0886 94.0954 41.6005C91.0175 44.406 86.9441 45.7224 82.9963 46.9682C80.2492 47.8349 77.502 48.702 74.7546 49.5687" fill="white"/>
</g>
<path d="M72.347 11.7083C71.5283 12.0527 71.079 13.0898 71.3876 13.9228C71.6965 14.7559 72.713 15.2495 73.5585 14.9771C74.404 14.7047 74.9413 13.7104 74.706 12.8539C74.4705 11.9972 73.5005 11.4175 72.6343 11.6156" fill="#E8505B"/>
<g opacity="0.8">
<path d="M72.347 11.7083C71.5283 12.0527 71.079 13.0898 71.3876 13.9228C71.6965 14.7559 72.713 15.2495 73.5585 14.9771C74.404 14.7047 74.9413 13.7104 74.706 12.8539C74.4705 11.9972 73.5005 11.4175 72.6343 11.6156" fill="white"/>
</g>
<path d="M82.509 131.926C81.4987 129.831 82.3795 127.22 83.9888 125.542C85.5981 123.863 87.7965 122.905 89.9246 121.968C94.6214 119.899 99.5944 117.433 101.983 112.891C102.788 111.359 103.247 109.673 103.7 108.002C104.577 104.769 105.399 101.097 103.636 98.2478C103.129 97.4285 102.366 96.6994 101.417 96.5312C100.337 96.3393 99.2262 96.9343 98.5604 97.8063C97.8946 98.6784 97.6092 99.7829 97.4716 100.871C97.2095 102.942 97.4266 105.048 97.2089 107.124C96.9911 109.2 96.2317 111.371 94.5194 112.564C92.4403 114.014 89.4728 113.688 87.4533 115.22C85.8224 116.457 85.2022 118.602 83.9267 120.203C82.8547 121.548 81.3549 122.467 79.9809 123.502C78.6068 124.537 77.278 125.799 76.8109 127.455C76.3261 129.174 76.9323 131.152 78.2979 132.304C79.6636 133.457 81.715 133.722 83.3286 132.954" fill="#E8505B"/>
<g opacity="0.8">
<path d="M82.509 131.925C81.4987 129.831 82.3795 127.22 83.9888 125.542C85.5981 123.863 87.7965 122.905 89.9246 121.968C94.6214 119.899 99.5944 117.433 101.983 112.89C102.788 111.358 103.247 109.672 103.7 108.002C104.577 104.768 105.399 101.096 103.636 98.2476C103.129 97.4283 102.366 96.6991 101.417 96.5309C100.337 96.3391 99.2262 96.9341 98.5604 97.8061C97.8946 98.6781 97.6092 99.7826 97.4716 100.871C97.2095 102.942 97.4266 105.048 97.2089 107.124C96.9911 109.2 96.2317 111.37 94.5194 112.564C92.4403 114.014 89.4728 113.688 87.4533 115.22C85.8224 116.457 85.2022 118.602 83.9267 120.202C82.8547 121.548 81.3549 122.467 79.9809 123.502C78.6068 124.536 77.278 125.799 76.8109 127.454C76.3261 129.174 76.9323 131.152 78.2979 132.304C79.6636 133.456 81.715 133.721 83.3286 132.954" fill="white"/>
</g>
<path d="M51.2698 26.1632C49.6156 24.9361 48.6063 22.885 48.6428 20.8258C48.6796 18.7666 49.7616 16.7526 51.4586 15.5854C52.418 14.9255 53.5556 14.5218 54.4086 13.729C55.167 13.0242 55.6603 12.0464 56.5089 11.4536C57.5635 10.7173 59.0932 10.7497 60.1157 11.5301C61.1378 12.3107 61.5724 13.778 61.1396 14.9892C60.7484 16.0843 59.7656 16.8843 59.3547 17.9719C58.9126 19.1428 59.1974 20.4545 59.033 21.6953C58.8312 23.2201 57.9051 24.6328 56.5873 25.4259C55.2694 26.219 53.5874 26.3759 52.1456 25.8402" fill="#E8505B"/>
<g opacity="0.8">
<path d="M51.2701 26.1632C49.6159 24.9361 48.6065 22.885 48.643 20.8258C48.6799 18.7666 49.7619 16.7526 51.4588 15.5854C52.4182 14.9255 53.5558 14.5218 54.4088 13.729C55.1673 13.0242 55.6605 12.0464 56.5092 11.4536C57.5637 10.7173 59.0935 10.7497 60.1159 11.5301C61.138 12.3107 61.5726 13.778 61.1399 14.9892C60.7486 16.0843 59.7658 16.8843 59.3549 17.9719C58.9128 19.1428 59.1977 20.4545 59.0333 21.6953C58.8314 23.2201 57.9054 24.6328 56.5875 25.4259C55.2696 26.219 53.5876 26.3759 52.1459 25.8402" fill="white"/>
</g>
<path d="M53.5353 29.067H53.0785C52.1456 29.067 51.3896 28.3107 51.3896 27.3781V19.4736H55.2241V27.3781C55.2241 28.3107 54.4682 29.067 53.5353 29.067Z" fill="#E8505B"/>
<path d="M51.3896 19.4736L53.3069 15.957L55.2241 19.4736H51.3896Z" fill="#FFBE9D"/>
<path d="M52.5476 17.3498C52.5476 17.3498 53.1298 18.2253 54.0664 17.3498L53.307 15.957L52.5476 17.3498Z" fill="#E8505B"/>
<path d="M55.277 26.9944C55.277 27.0371 54.4044 27.0717 53.328 27.0717C52.2513 27.0717 51.3789 27.0371 51.3789 26.9944C51.3789 26.9516 52.2516 26.917 53.328 26.917C54.4044 26.917 55.277 26.9516 55.277 26.9944Z" fill="#263238"/>
<path d="M55.2378 26.4055C55.2378 26.4482 54.3826 26.4829 53.328 26.4829C52.2729 26.4829 51.418 26.4482 51.418 26.4055C51.418 26.3628 52.2729 26.3281 53.328 26.3281C54.3829 26.3281 55.2378 26.3628 55.2378 26.4055Z" fill="#263238"/>
<path d="M52.5151 19.5303C52.5579 19.5303 52.5925 21.0609 52.5925 22.9482C52.5925 24.8365 52.5579 26.3665 52.5151 26.3665C52.4724 26.3665 52.4377 24.8365 52.4377 22.9482C52.4377 21.0606 52.4724 19.5303 52.5151 19.5303Z" fill="#FAFAFA"/>
<path d="M54.0664 19.5303C54.1091 19.5303 54.1438 21.0609 54.1438 22.9482C54.1438 24.8365 54.1091 26.3665 54.0664 26.3665C54.0236 26.3665 53.989 24.8365 53.989 22.9482C53.989 21.0606 54.0236 19.5303 54.0664 19.5303Z" fill="#FAFAFA"/>
<path d="M84.7032 127.521L102.123 128.266L102.544 129.281L91.127 147.813L70.5156 147.212L84.7032 127.521Z" fill="#263238"/>
<path d="M69.7336 145.405L90.4688 146.59L101.299 129.783L93.6943 130.401L74.4461 137.179L69.7336 145.405Z" fill="#E0E0E0"/>
<path d="M66.8214 144.159L85.8624 144.46C85.0715 142.024 86.9369 138.593 89.4966 137.439C91.1932 136.674 94.3859 135.683 96.0333 134.838C99.1636 133.232 101.992 130.191 101.745 127.582L93.9245 127.333L83.9433 126.948C83.1087 129.424 81.3234 131.046 78.6094 132.021C76.1804 132.895 73.4161 132.892 71.0471 133.885C67.2338 135.482 65.4015 140.656 66.8214 144.159Z" fill="#EBEBEB"/>
<path d="M66.8214 144.16C66.8214 144.16 66.8033 144.119 66.7737 144.037C66.7428 143.95 66.6997 143.829 66.6432 143.67C66.5768 143.51 66.5381 143.3 66.481 143.053C66.4127 142.808 66.3899 142.515 66.3497 142.187C66.3013 141.528 66.3082 140.704 66.5007 139.766C66.6944 138.831 67.0626 137.778 67.7218 136.744C67.8928 136.49 68.0572 136.221 68.27 135.978C68.3733 135.855 68.47 135.723 68.5817 135.602C68.6978 135.484 68.8148 135.365 68.9333 135.245C69.0475 135.12 69.1789 135.011 69.314 134.903C69.4487 134.796 69.5792 134.679 69.7217 134.575C70.0203 134.388 70.3096 134.169 70.6487 134.022C71.9681 133.357 73.5444 133.077 75.1858 132.779C76.0089 132.63 76.8562 132.473 77.7071 132.239C78.5541 131.999 79.4075 131.678 80.2171 131.229C80.624 131.009 81.0171 130.752 81.3887 130.46C81.7631 130.172 82.1141 129.845 82.4283 129.479C83.0685 128.755 83.5502 127.875 83.875 126.925L83.8925 126.874L83.9458 126.876C86.5966 126.978 89.379 127.084 92.2625 127.193C95.146 127.307 98.1324 127.385 101.189 127.488C101.377 127.494 101.564 127.5 101.747 127.505L101.816 127.508L101.822 127.576C101.874 128.179 101.764 128.779 101.57 129.336C101.481 129.619 101.345 129.881 101.221 130.147C101.074 130.4 100.937 130.659 100.766 130.896C100.117 131.865 99.285 132.677 98.407 133.389C97.5216 134.097 96.5609 134.685 95.5603 135.148C94.5557 135.6 93.5389 135.968 92.5427 136.336C91.5471 136.705 90.5621 137.054 89.627 137.461C89.1684 137.674 88.7278 137.918 88.3463 138.238C88.1438 138.383 87.975 138.566 87.79 138.727C87.6271 138.912 87.4458 139.078 87.3011 139.274C86.6861 140.029 86.224 140.884 85.9694 141.777C85.6999 142.664 85.6699 143.603 85.9223 144.441L85.9479 144.526L85.8612 144.524C80.0939 144.422 75.3356 144.337 72.0134 144.279C70.3579 144.245 69.0612 144.219 68.1733 144.201C67.7349 144.19 67.3983 144.181 67.1658 144.175C66.9384 144.168 66.8214 144.16 66.8214 144.16C66.8214 144.16 66.9387 144.155 67.1665 144.156C67.3989 144.157 67.7356 144.159 68.1739 144.162C69.0622 144.172 70.3588 144.187 72.0146 144.206C75.3368 144.251 80.0954 144.317 85.8634 144.397L85.8022 144.48C85.5376 143.611 85.5691 142.646 85.8421 141.74C86.1005 140.827 86.5691 139.957 87.194 139.187C87.3413 138.987 87.5254 138.816 87.6917 138.629C87.8798 138.463 88.052 138.277 88.2589 138.128C88.6477 137.801 89.1019 137.548 89.5693 137.33C90.5122 136.918 91.4965 136.568 92.4918 136.199C93.4868 135.829 94.5026 135.46 95.4979 135.012C96.4854 134.554 97.4367 133.971 98.3115 133.271C99.1792 132.565 100.001 131.762 100.638 130.81C100.806 130.578 100.94 130.324 101.084 130.076C101.205 129.816 101.338 129.56 101.424 129.285C101.612 128.744 101.718 128.167 101.668 127.591L101.742 127.661C101.56 127.655 101.372 127.649 101.184 127.643C98.1271 127.541 95.1407 127.461 92.2569 127.346C89.3734 127.233 86.591 127.124 83.9402 127.02L84.0107 126.972C83.6794 127.937 83.1864 128.834 82.5328 129.57C82.2117 129.942 81.8535 130.276 81.4723 130.568C81.0935 130.864 80.6942 131.124 80.2811 131.346C79.4593 131.799 78.5972 132.121 77.7408 132.362C76.8821 132.595 76.0307 132.751 75.207 132.898C73.5646 133.19 71.9972 133.466 70.6955 134.117C70.3613 134.259 70.0759 134.474 69.7804 134.657C69.6394 134.759 69.5105 134.874 69.377 134.979C69.2431 135.085 69.113 135.192 69.0001 135.315C68.8825 135.433 68.7661 135.55 68.651 135.665C68.5399 135.785 68.4438 135.914 68.3411 136.036C68.1296 136.275 67.9658 136.54 67.7951 136.791C67.1371 137.812 66.7655 138.854 66.5665 139.78C66.369 140.71 66.355 141.528 66.3955 142.183C66.432 142.51 66.4507 142.802 66.515 143.047C66.5681 143.293 66.6027 143.503 66.6654 143.664C66.7169 143.824 66.7562 143.946 66.7846 144.034C66.8108 144.116 66.8214 144.16 66.8214 144.16Z" fill="#263238"/>
<path d="M89.292 127.256C89.2783 127.252 89.317 127.134 89.3351 126.916C89.3516 126.7 89.3373 126.375 89.1857 126.017C89.039 125.663 88.747 125.27 88.2855 125.052C87.831 124.833 87.23 124.788 86.6809 124.995C86.1277 125.198 85.7293 125.648 85.5218 126.11C85.3059 126.576 85.2766 127.056 85.3387 127.437C85.4011 127.821 85.5468 128.11 85.6641 128.294C85.782 128.479 85.87 128.566 85.8604 128.576C85.8554 128.582 85.7521 128.508 85.6148 128.328C85.4785 128.15 85.3106 127.857 85.2311 127.456C85.1518 127.059 85.1702 126.549 85.3917 126.052C85.6039 125.559 86.0279 125.07 86.6266 124.85C87.2179 124.627 87.8612 124.681 88.3486 124.924C88.845 125.168 89.1466 125.598 89.2877 125.976C89.4343 126.36 89.4312 126.701 89.3953 126.923C89.3766 127.035 89.3541 127.12 89.3317 127.175C89.3105 127.23 89.297 127.258 89.292 127.256Z" fill="#263238"/>
<path d="M92.2762 127.256C92.2624 127.252 92.3011 127.134 92.3192 126.916C92.3358 126.7 92.3214 126.375 92.1698 126.017C92.0231 125.663 91.7311 125.27 91.2697 125.052C90.8151 124.833 90.2145 124.788 89.6651 124.995C89.1119 125.198 88.7135 125.648 88.506 126.11C88.2898 126.576 88.2607 127.056 88.3228 127.437C88.3852 127.821 88.5309 128.11 88.6482 128.294C88.7662 128.479 88.8542 128.566 88.8445 128.576C88.8395 128.582 88.7362 128.508 88.5989 128.328C88.4626 128.15 88.2947 127.857 88.2152 127.456C88.1359 127.059 88.1543 126.549 88.3759 126.052C88.588 125.559 89.012 125.07 89.6108 124.85C90.202 124.627 90.8453 124.681 91.3327 124.924C91.8291 125.168 92.1308 125.598 92.2718 125.976C92.4184 126.36 92.4153 126.701 92.3794 126.923C92.3607 127.035 92.3383 127.12 92.3158 127.175C92.2946 127.23 92.2812 127.258 92.2762 127.256Z" fill="#263238"/>
<path d="M94.543 127.411C94.5289 127.407 94.5611 127.287 94.5667 127.068C94.5711 126.852 94.5383 126.528 94.3664 126.179C94.1998 125.834 93.8862 125.458 93.4132 125.267C92.9468 125.074 92.3446 125.063 91.808 125.301C91.2673 125.535 90.8948 126.007 90.7138 126.48C90.5244 126.957 90.5225 127.437 90.6059 127.814C90.6901 128.195 90.8517 128.475 90.9793 128.652C91.1076 128.83 91.2005 128.912 91.1912 128.922C91.1865 128.928 91.0792 128.861 90.9319 128.689C90.7859 128.519 90.6015 128.236 90.4995 127.84C90.3977 127.448 90.3871 126.938 90.5806 126.429C90.7644 125.925 91.16 125.412 91.7453 125.159C92.3228 124.903 92.9683 124.92 93.4685 125.136C93.9776 125.351 94.3037 125.763 94.4656 126.133C94.6338 126.508 94.65 126.849 94.6269 127.072C94.6147 127.184 94.597 127.271 94.5776 127.327C94.5598 127.384 94.548 127.412 94.543 127.411Z" fill="#263238"/>
<path d="M96.9728 127.549C96.9584 127.547 96.984 127.425 96.9781 127.206C96.9709 126.989 96.9213 126.668 96.731 126.328C96.5463 125.993 96.2134 125.634 95.7307 125.468C95.2549 125.3 94.6528 125.32 94.1295 125.586C93.6019 125.849 93.255 126.34 93.0993 126.822C92.9355 127.309 92.9589 127.789 93.0622 128.16C93.1664 128.536 93.3427 128.807 93.4793 128.977C93.6169 129.148 93.714 129.225 93.7052 129.236C93.7009 129.242 93.5901 129.18 93.4341 129.016C93.279 128.854 93.0803 128.581 92.9574 128.191C92.8351 127.805 92.7976 127.297 92.9636 126.778C93.1205 126.265 93.4884 125.732 94.0593 125.448C94.6225 125.162 95.268 125.145 95.7788 125.334C96.2989 125.522 96.6458 125.916 96.8274 126.277C97.0152 126.642 97.0495 126.982 97.038 127.206C97.0318 127.319 97.0187 127.406 97.0024 127.463C96.9884 127.521 96.9781 127.55 96.9728 127.549Z" fill="#263238"/>
<path d="M99.4076 127.492C99.3933 127.49 99.4157 127.367 99.4036 127.149C99.3905 126.932 99.3315 126.613 99.1321 126.279C98.9381 125.948 98.5952 125.599 98.1082 125.447C97.6277 125.292 97.0264 125.33 96.511 125.61C95.9909 125.887 95.658 126.388 95.5161 126.874C95.366 127.365 95.4028 127.844 95.5167 128.213C95.6312 128.586 95.8153 128.852 95.9566 129.017C96.0989 129.185 96.1981 129.259 96.1897 129.27C96.1856 129.276 96.073 129.218 95.9123 129.058C95.7529 128.9 95.5463 128.633 95.4125 128.247C95.2792 127.864 95.2275 127.357 95.3791 126.834C95.5214 126.317 95.8745 125.774 96.4371 125.474C96.9921 125.172 97.6367 125.137 98.1528 125.311C98.6779 125.484 99.036 125.869 99.2276 126.224C99.4257 126.584 99.4694 126.923 99.4644 127.147C99.4613 127.26 99.4507 127.348 99.436 127.405C99.4223 127.463 99.4129 127.493 99.4076 127.492Z" fill="#263238"/>
<path d="M101.459 127.766C101.445 127.763 101.472 127.642 101.469 127.423C101.464 127.206 101.418 126.885 101.232 126.543C101.051 126.205 100.722 125.842 100.242 125.671C99.7679 125.497 99.1658 125.51 98.6395 125.77C98.1087 126.026 97.7562 126.513 97.5949 126.994C97.4251 127.478 97.4432 127.958 97.5421 128.332C97.6417 128.708 97.8148 128.981 97.9496 129.153C98.0853 129.326 98.1814 129.404 98.1724 129.414C98.168 129.42 98.0579 129.358 97.9038 129.192C97.7509 129.028 97.5552 128.752 97.4367 128.361C97.3191 127.974 97.2872 127.465 97.4595 126.948C97.6223 126.437 97.9967 125.908 98.5711 125.631C99.1377 125.351 99.7832 125.342 100.292 125.537C100.81 125.731 101.152 126.129 101.33 126.492C101.513 126.86 101.543 127.2 101.529 127.424C101.522 127.537 101.507 127.623 101.49 127.68C101.475 127.738 101.464 127.767 101.459 127.766Z" fill="#263238"/>
<path d="M110.433 63.8521C109.614 63.829 108.744 63.8583 107.854 63.9688C102.478 64.6349 98.4716 69.2528 98.4822 74.67C98.4853 76.2475 98.6538 78.0128 99.1493 79.7706C100.649 85.0918 101.112 89.7836 100.939 92.0675L105.961 94.7672C105.961 94.7672 108.286 91.4269 110.532 89.9858C112.778 88.545 120.255 84.6934 123.215 80.7334C125.123 78.1804 125.49 72.9413 120.941 68.3592C118.161 65.5597 114.376 63.9631 110.433 63.8521Z" fill="#E8505B"/>
<path d="M98.5614 97.8787L103.099 100.331L100.145 104.082L97.1206 102.707L98.5614 97.8787Z" fill="#455A64"/>
<path d="M98.7818 98.0298C98.7416 98.0152 99.1918 96.6686 99.7874 95.0225C100.383 93.3757 100.898 92.0528 100.939 92.0675C100.979 92.0822 100.529 93.4284 99.9331 95.0752C99.3375 96.7213 98.822 98.0442 98.7818 98.0298Z" fill="#263238"/>
<path d="M102.812 100.146C102.776 100.125 103.486 98.8526 104.4 97.3057C105.314 95.7582 106.084 94.5214 106.121 94.5433C106.158 94.5651 105.448 95.8368 104.534 97.3843C103.62 98.9315 102.849 100.168 102.812 100.146Z" fill="#263238"/>
<g opacity="0.4">
<path d="M111.946 63.994C111.743 64.0053 109.246 66.9275 108.142 68.9052C104.426 75.5589 104.26 82.0348 103.228 89.5855C103.081 90.6641 102.545 92.9897 102.555 92.9358C103.105 93.3666 104.952 94.2243 104.952 94.2243C104.952 94.2243 106.695 92.1214 107.387 91.0638C110.16 86.8284 113.17 83.5268 115.543 79.0555C117.916 74.5839 120.201 70.619 118.004 66.0579C118.004 66.0579 114.2 63.8677 111.946 63.994Z" fill="black"/>
</g>
<path d="M123.234 81.4022C123.23 81.4035 123.208 81.3542 123.169 81.2584C123.127 81.1635 123.079 81.0175 122.996 80.8366C122.832 80.4737 122.564 79.9511 122.119 79.3617C121.672 78.7777 121.049 78.1178 120.192 77.5637C119.348 76.9968 118.262 76.5478 117.03 76.3934L117 76.3896L116.982 76.3656C116.405 75.5872 115.743 74.7841 114.955 74.0387C114.169 73.2955 113.248 72.6116 112.188 72.1333C111.131 71.6616 109.992 71.4525 108.918 71.5099C107.843 71.5642 106.835 71.9059 106.055 72.4637L106.01 72.4962L105.968 72.4594C105.036 71.6391 103.918 71.2151 102.912 71.1009C101.898 70.9839 100.999 71.1705 100.313 71.4323C99.6217 71.6953 99.1344 72.0297 98.8199 72.2725C98.663 72.3951 98.546 72.4949 98.4698 72.5648C98.3928 72.6341 98.3513 72.6684 98.3488 72.6659C98.346 72.6631 98.3822 72.6235 98.4546 72.5486C98.526 72.4731 98.6386 72.3673 98.7928 72.2382C99.101 71.9826 99.5862 71.6329 100.283 71.3546C100.974 71.0778 101.889 70.876 102.925 70.9858C103.954 71.0928 105.1 71.5174 106.061 72.3545L105.974 72.3502C106.774 71.7714 107.81 71.4167 108.91 71.3589C110.01 71.2975 111.172 71.51 112.252 71.9917C113.332 72.4787 114.266 73.1751 115.059 73.9286C115.855 74.6842 116.518 75.4967 117.095 76.2823L117.047 76.2545C118.303 76.4183 119.405 76.8835 120.256 77.4666C121.12 78.037 121.743 78.7137 122.186 79.3112C122.626 79.9143 122.884 80.4478 123.036 80.8185C123.114 81.0032 123.155 81.1526 123.191 81.25C123.223 81.3495 123.238 81.401 123.234 81.4022Z" fill="#263238"/>
<path d="M113.898 88.0332C113.867 88.0438 113.873 87.5792 113.465 86.9418C113.258 86.6323 112.95 86.2807 112.5 86.0161C112.061 85.7437 111.473 85.5609 110.838 85.6224L110.775 85.6283L110.766 85.5659C110.665 84.9207 110.398 84.2343 109.942 83.6259C109.488 83.0206 108.853 82.4805 108.078 82.1795C107.442 81.9261 106.766 81.8375 106.13 81.8809C105.493 81.9264 104.899 82.1071 104.395 82.371L104.347 82.396L104.311 82.3567C103.809 81.8188 103.161 81.5171 102.567 81.4119C101.97 81.2915 101.427 81.352 101.003 81.4609C100.144 81.6949 99.7788 82.1096 99.7617 82.0771C99.7592 82.0743 99.7816 82.0512 99.8281 82.0094C99.8762 81.9695 99.9417 81.9024 100.041 81.8331C100.236 81.6915 100.547 81.508 100.981 81.3804C101.412 81.2569 101.97 81.1832 102.588 81.2977C103.203 81.397 103.882 81.7012 104.414 82.2621L104.329 82.2478C104.849 81.9704 105.462 81.7798 106.12 81.7302C106.776 81.6824 107.476 81.7726 108.136 82.0353C108.94 82.3482 109.597 82.9095 110.062 83.537C110.53 84.1678 110.8 84.8786 110.897 85.5459L110.824 85.4898C111.495 85.4317 112.107 85.6336 112.557 85.9231C113.018 86.2055 113.327 86.5755 113.53 86.8997C113.731 87.2289 113.819 87.5215 113.862 87.7212C113.884 87.821 113.887 87.9003 113.895 87.9524C113.901 88.0054 113.901 88.0326 113.898 88.0332Z" fill="#263238"/>
<path d="M102.221 101.511C102.21 101.52 102.172 101.449 102.055 101.401C101.938 101.352 101.749 101.345 101.524 101.417C101.409 101.448 101.279 101.49 101.123 101.49C100.967 101.493 100.794 101.418 100.675 101.293C100.434 101.042 100.342 100.679 100.115 100.429C100.002 100.306 99.8543 100.243 99.6967 100.253C99.5395 100.259 99.3813 100.311 99.2237 100.347C99.0671 100.385 98.9011 100.408 98.7482 100.372C98.5966 100.34 98.4724 100.265 98.3766 100.182C98.1841 100.013 98.0999 99.8146 98.0781 99.6779C98.0547 99.5394 98.0768 99.4629 98.0846 99.4639C98.098 99.4642 98.0974 99.5397 98.1364 99.6632C98.1739 99.7852 98.2665 99.9578 98.4459 100.097C98.5351 100.166 98.6465 100.225 98.7735 100.246C98.8986 100.271 99.04 100.248 99.1897 100.208C99.3401 100.171 99.5011 100.112 99.6908 100.101C99.8814 100.084 100.094 100.172 100.227 100.322C100.491 100.622 100.574 100.979 100.777 101.193C100.876 101.298 100.999 101.357 101.126 101.362C101.254 101.367 101.381 101.335 101.498 101.31C101.736 101.249 101.958 101.271 102.081 101.346C102.209 101.422 102.228 101.511 102.221 101.511Z" fill="#263238"/>
<path d="M102.741 100.784C102.722 100.822 101.73 100.332 100.528 99.6912C99.3257 99.0497 98.3672 98.4993 98.3875 98.4613C98.4078 98.4235 99.3984 98.9127 100.601 99.5542C101.803 100.196 102.762 100.746 102.741 100.784Z" fill="#263238"/>
<path d="M101.841 101.928C101.843 101.94 101.777 101.959 101.668 102.01C101.612 102.035 101.549 102.072 101.463 102.107C101.376 102.143 101.264 102.156 101.15 102.148C100.924 102.132 100.644 102.061 100.403 101.86C100.282 101.762 100.181 101.618 100.117 101.468C100.051 101.32 99.9982 101.167 99.8977 101.059C99.6902 100.837 99.3545 100.814 99.0759 100.824C98.7895 100.834 98.5074 100.843 98.2869 100.748C98.0694 100.657 97.9374 100.503 97.8881 100.382C97.8373 100.26 97.8554 100.185 97.8628 100.186C97.8763 100.184 97.8806 100.255 97.9418 100.355C98.0011 100.454 98.129 100.578 98.3262 100.646C98.5218 100.716 98.7782 100.7 99.0706 100.681C99.3551 100.666 99.7398 100.671 100.012 100.955C100.141 101.097 100.194 101.267 100.256 101.406C100.315 101.548 100.393 101.661 100.496 101.752C100.7 101.932 100.953 102.011 101.16 102.039C101.37 102.077 101.522 101.989 101.646 101.954C101.768 101.918 101.839 101.919 101.841 101.928Z" fill="#263238"/>
<path d="M67.5853 72.7882L75.4309 71.6248L71.6797 66.3108L69.6683 66.4293C68.3145 66.5092 67.1211 67.3457 66.5845 68.5912C66.2993 69.2526 66.22 69.9846 66.3567 70.6919L67.5853 72.7882Z" fill="#E8505B"/>
<path opacity="0.4" d="M67.5853 72.7882L75.4309 71.6248L71.6797 66.3108L69.6683 66.4293C68.3145 66.5092 67.1211 67.3457 66.5845 68.5912C66.2993 69.2526 66.22 69.9846 66.3567 70.6919L67.5853 72.7882Z" fill="black"/>
<path d="M101.286 81.4822C101.367 81.7069 101.456 81.973 101.545 82.2909C101.622 82.5639 101.648 82.8485 101.629 83.1314C101.606 83.4743 101.557 83.9292 101.452 84.1695C101.323 84.4671 101.623 84.7666 101.877 84.6178C102.132 84.469 102.507 83.6578 102.484 82.6135C102.461 81.5693 103.526 82.821 103.922 83.27C104.319 83.7189 105.61 85.0512 105.845 85.0387C106.189 85.0203 106.233 84.6484 105.826 84.2091C105.415 83.7645 104.294 82.3664 104.542 82.1686C104.786 81.9736 106.772 84.2877 106.772 84.2877C106.772 84.2877 107.117 84.8512 107.41 84.6319C107.939 84.2366 105.646 81.9321 105.423 81.7184C105.267 81.5696 105.528 81.3453 105.687 81.5137C105.85 81.6872 107.614 83.8681 108.157 83.4706C108.573 83.1658 106.288 81.5577 106.174 80.9019C106.059 80.2461 107.782 82.2975 108.168 81.9902C108.312 81.8757 108.403 81.7702 107.243 80.735C106.68 80.2323 104.54 78.7347 104.54 78.7347L98.1006 60.2971L93.1277 63.1451L101.286 81.4822Z" fill="#FFBE9D"/>
<path d="M62.9531 46.6136L55.7572 38.0258L55.7565 38.0261C55.6632 37.731 55.5512 37.443 55.4046 37.17C55.0449 36.5001 54.4499 35.9164 53.707 35.7538C53.2505 35.654 52.7283 35.702 52.3701 35.4019C52.21 35.2677 52.1033 35.0768 51.9355 34.9523C51.7679 34.8278 51.4884 34.8038 51.381 34.9832C51.3046 35.1108 51.3533 35.2743 51.411 35.4112C51.6781 36.0452 52.1146 36.6053 52.6602 37.0237C51.9854 37.2286 51.0219 37.5388 51.0219 37.5388C51.0219 37.5388 49.5006 35.8883 48.7216 35.8936C47.9425 35.8989 49.3512 37.3672 49.3512 37.3672C49.3512 37.3672 48.1035 36.2143 47.7166 36.5391C47.3297 36.8642 48.3213 37.72 48.3213 37.72C48.0061 37.5516 47.6614 37.3781 47.3091 37.4364C46.9569 37.4951 46.6536 37.911 46.8433 38.2133C46.916 38.3294 47.0405 38.4005 47.1603 38.4673C47.7987 38.823 48.437 39.1789 49.0757 39.5349C49.3961 39.7137 49.7328 39.8969 50.0997 39.9081C51.0712 39.938 51.81 39.3365 52.7816 39.3624C52.7816 39.3624 58.2079 50.785 58.7567 51.3741C59.3055 51.9631 71.2264 52.7653 71.2264 52.7653L78.126 46.8208L62.9531 46.6136Z" fill="#FFBE9D"/>
<path d="M84.5663 108.834L91.9149 112.035L87.9796 121.198C87.1272 120.768 87.4058 115.273 87.4058 115.273L82.6135 113.416L84.5663 108.834Z" fill="#E8505B"/>
<g opacity="0.6">
<path d="M88.2256 112.269C88.3504 112.113 88.6022 112.076 88.7638 112.194C88.9254 112.312 88.9651 112.568 88.8431 112.727C88.7211 112.885 88.42 112.939 88.2727 112.803C88.1255 112.668 88.0952 112.365 88.2515 112.24" fill="white"/>
</g>
<path opacity="0.6" d="M91.9146 112.035L91.1614 111.741L87.6702 120.636C87.6702 120.636 87.6724 121.12 87.9797 121.198L91.9146 112.035Z" fill="white"/>
<path d="M87.2955 115.402C87.3411 115.42 87.4571 115.205 87.6958 115.046C87.9301 114.882 88.1726 114.852 88.1726 114.803C88.1816 114.758 87.8855 114.709 87.6 114.906C87.313 115.101 87.2503 115.394 87.2955 115.402Z" fill="#263238"/>
<path d="M87.2799 116.533C87.3189 116.562 87.4781 116.401 87.7327 116.331C87.9851 116.252 88.2063 116.302 88.2234 116.257C88.2487 116.218 87.9997 116.074 87.6849 116.168C87.3695 116.259 87.2375 116.514 87.2799 116.533Z" fill="#263238"/>
<path d="M88.1958 117.573C88.2229 117.537 88.0261 117.378 87.7316 117.388C87.437 117.395 87.2498 117.565 87.2788 117.6C87.3047 117.641 87.4944 117.561 87.7362 117.557C87.9783 117.548 88.1724 117.616 88.1958 117.573Z" fill="#263238"/>
<path d="M86.2503 114.857C86.299 114.856 86.3255 114.624 86.4513 114.379C86.572 114.13 86.7414 113.97 86.713 113.931C86.6918 113.891 86.4438 114.012 86.2996 114.303C86.1533 114.593 86.2057 114.864 86.2503 114.857Z" fill="#263238"/>
<path d="M85.2564 114.172C85.2748 114.181 85.3784 114.016 85.4511 113.712C85.487 113.561 85.5123 113.376 85.5098 113.169C85.5082 113.065 85.5001 112.957 85.4829 112.845C85.4739 112.791 85.468 112.729 85.4346 112.66C85.4093 112.591 85.3026 112.511 85.2053 112.538C85.1148 112.554 85.0486 112.624 85.0187 112.69C84.9875 112.756 84.9775 112.817 84.9685 112.872C84.9494 112.984 84.9423 113.095 84.9438 113.199C84.9482 113.408 84.9878 113.594 85.0399 113.741C85.1454 114.038 85.2814 114.183 85.2967 114.171C85.3201 114.157 85.2243 113.994 85.155 113.708C85.1204 113.565 85.0961 113.391 85.1001 113.199C85.1026 113.104 85.1126 113.003 85.1319 112.901C85.1482 112.793 85.1828 112.71 85.2368 112.704C85.2571 112.702 85.2642 112.704 85.2839 112.736C85.301 112.768 85.3098 112.819 85.3188 112.872C85.3369 112.976 85.3478 113.077 85.3531 113.174C85.3638 113.368 85.3522 113.544 85.3326 113.69C85.2939 113.984 85.2321 114.162 85.2564 114.172Z" fill="#263238"/>
<path d="M85.3458 114.141C85.3595 114.128 85.2372 113.97 84.9545 113.829C84.8141 113.76 84.6335 113.7 84.425 113.676C84.3211 113.665 84.2104 113.663 84.0962 113.673C83.9826 113.688 83.8332 113.701 83.7386 113.866C83.6962 113.956 83.7349 114.061 83.7842 114.113C83.8332 114.17 83.8837 114.199 83.9321 114.232C84.0319 114.295 84.1377 114.338 84.241 114.365C84.4484 114.42 84.645 114.41 84.7991 114.373C85.1136 114.296 85.2472 114.132 85.2338 114.121C85.2178 114.097 85.0643 114.216 84.7773 114.255C84.636 114.274 84.4616 114.27 84.2837 114.215C84.1951 114.187 84.1056 114.147 84.0223 114.092C83.9308 114.036 83.8681 113.966 83.8937 113.934C83.9124 113.888 84.0191 113.842 84.113 113.838C84.2154 113.826 84.3155 113.825 84.4107 113.831C84.601 113.845 84.7701 113.888 84.9068 113.939C85.1816 114.042 85.3286 114.162 85.3458 114.141Z" fill="#263238"/>
<path d="M78.9067 121.422L81.9459 127.789L82.8978 133.519C82.9665 133.932 83.3702 134.2 83.7777 134.104C84.0058 134.05 84.1926 133.891 84.2803 133.674C84.8391 132.29 86.869 127.191 86.6203 126.737C86.3326 126.212 83.86 119.808 83.86 119.808L78.9067 121.422Z" fill="#E8505B"/>
<path opacity="0.6" d="M83.7776 134.104L86.4252 126.304L86.5478 126.576C86.6539 126.812 86.6739 127.077 86.6018 127.326C86.409 127.99 85.8365 129.811 84.2999 133.666C84.2106 133.889 84.0138 134.055 83.7776 134.104Z" fill="white"/>
<g opacity="0.6">
<path d="M84.1716 124.821C84.0606 125.005 84.1173 125.272 84.2967 125.391C84.4761 125.509 84.7485 125.454 84.863 125.272C84.9772 125.09 84.9189 124.767 84.7273 124.669C84.536 124.571 84.2194 124.654 84.152 124.858" fill="white"/>
</g>
<path d="M83.9846 130.631C83.9562 130.665 83.6595 130.393 83.1953 130.384C82.7313 130.361 82.4165 130.612 82.3906 130.575C82.3778 130.562 82.4368 130.476 82.5781 130.387C82.7176 130.297 82.9447 130.221 83.2009 130.229C83.457 130.239 83.6782 130.331 83.8112 130.43C83.9456 130.528 83.9984 130.618 83.9846 130.631Z" fill="#263238"/>
<path d="M83.9136 131.698C83.8956 131.74 83.5948 131.624 83.2191 131.678C82.8422 131.724 82.5826 131.915 82.5543 131.879C82.5209 131.855 82.7692 131.579 83.1985 131.524C83.6272 131.465 83.9392 131.666 83.9136 131.698Z" fill="#263238"/>
<path d="M84.3413 129.143C84.3247 129.187 83.8633 129.005 83.2717 129.039C82.6795 129.063 82.2377 129.288 82.2172 129.245C82.1913 129.216 82.6293 128.911 83.2642 128.884C83.8988 128.85 84.364 129.111 84.3413 129.143Z" fill="#263238"/>
<path d="M83.5791 127.13C83.5791 127.176 83.157 127.187 82.6868 127.379C82.2138 127.563 81.9 127.846 81.8681 127.812C81.8363 127.789 82.1218 127.435 82.6294 127.235C83.1352 127.03 83.586 127.091 83.5791 127.13Z" fill="#263238"/>
<path d="M82.7344 125.238C82.7313 125.284 82.2773 125.23 81.7987 125.472C81.3148 125.703 81.0802 126.096 81.0418 126.07C81.0253 126.062 81.0593 125.949 81.1691 125.797C81.2777 125.645 81.4717 125.461 81.7304 125.333C81.9897 125.206 82.2536 125.165 82.4402 125.171C82.6277 125.178 82.7375 125.219 82.7344 125.238Z" fill="#263238"/>
<path d="M81.6483 125.108C81.6402 125.111 81.5869 125.031 81.5301 124.868C81.4742 124.706 81.4165 124.456 81.4371 124.144C81.453 123.993 81.4562 123.806 81.5978 123.641C81.668 123.558 81.8084 123.515 81.9232 123.566C82.0362 123.615 82.1076 123.71 82.1557 123.811C82.3326 124.222 82.1594 124.775 81.7263 125.04C81.2877 125.298 80.7513 125.223 80.4103 124.952C80.3292 124.879 80.2512 124.779 80.2525 124.648C80.2521 124.516 80.3632 124.413 80.4627 124.388C80.6668 124.33 80.8368 124.386 80.9857 124.418C81.2877 124.496 81.5092 124.622 81.6496 124.72C81.7909 124.819 81.8543 124.891 81.8483 124.898C81.8334 124.925 81.5435 124.655 80.9604 124.524C80.8166 124.499 80.6471 124.461 80.5039 124.51C80.434 124.533 80.3882 124.586 80.3885 124.651C80.3872 124.714 80.4372 124.788 80.5039 124.844C80.7882 125.064 81.2786 125.131 81.6458 124.908C82.0131 124.688 82.1644 124.202 82.0252 123.869C81.9906 123.79 81.9335 123.72 81.8702 123.691C81.8078 123.664 81.7385 123.68 81.6902 123.73C81.5875 123.837 81.5644 124.01 81.5463 124.154C81.4874 124.748 81.6799 125.101 81.6483 125.108Z" fill="#263238"/>
<path d="M89.1473 109.612L80.8151 104.003L83.5725 76.9241L75.6799 72.3149L68.4624 70.6426C68.4624 70.6426 65.4478 76.9135 64.1075 80.928C61.2564 89.4658 59.2552 92.5256 59.7126 98.7144C59.8574 100.673 67.0905 105.573 71.6585 108.295C71.7212 108.92 71.8011 109.466 71.9009 109.916C73.4618 116.973 78.2264 126.357 78.2264 126.357L85.4676 122.991L83.131 114.989L85.5646 116.409L89.1473 109.612ZM71.2367 92.1512L72.2089 87.8107C72.0032 90.5703 71.8154 93.4498 71.681 96.2106C71.213 94.9346 71.0535 93.5165 71.2367 92.1512Z" fill="#263238"/>
<path d="M78.2261 126.357C78.2236 126.358 78.2046 126.319 78.17 126.243C78.1332 126.159 78.0836 126.046 78.0199 125.901C77.8889 125.592 77.7007 125.148 77.4602 124.581C76.9791 123.431 76.2905 121.766 75.4618 119.698C74.6378 117.629 73.6563 115.165 72.6679 112.389C72.4217 111.695 72.1802 110.979 71.9534 110.24C71.8529 109.866 71.7269 109.497 71.661 109.101C71.642 109.004 71.6199 108.905 71.6039 108.807L71.5693 108.512C71.5472 108.314 71.5253 108.116 71.5029 107.917C71.418 107.119 71.3478 106.306 71.2957 105.479C71.2695 105.066 71.247 104.649 71.2308 104.229C71.2158 103.811 71.1968 103.384 71.2211 102.959C71.3434 99.556 71.6295 96.3309 71.8648 93.3949C72.11 90.4621 72.3309 87.8201 72.5165 85.5987C72.6963 83.3791 72.822 81.5817 72.8931 80.3387C72.9318 79.7172 72.9533 79.2345 72.968 78.9069C72.9767 78.749 72.9833 78.6255 72.9883 78.5344C72.9936 78.4505 72.998 78.4077 73.0005 78.4077C73.003 78.4077 73.0042 78.4508 73.0042 78.535C73.003 78.6261 73.0014 78.7497 72.9995 78.9079C72.9948 79.2358 72.9833 79.7194 72.9537 80.3415C72.9009 81.5861 72.792 83.3857 72.6261 85.6068C72.4498 87.8292 72.2401 90.4721 72.0074 93.4062C71.7802 96.3412 71.4982 99.5697 71.3765 102.961C71.3525 103.385 71.3712 103.803 71.3859 104.223C71.4021 104.641 71.4239 105.057 71.4498 105.469C71.5013 106.294 71.5706 107.105 71.6542 107.9C71.676 108.099 71.6979 108.297 71.7197 108.494L71.7537 108.789C71.7696 108.885 71.7911 108.98 71.8092 109.075C71.8716 109.456 71.9971 109.827 72.0957 110.197C72.3197 110.932 72.559 111.647 72.803 112.341C73.7823 115.116 74.7533 117.584 75.5638 119.658C76.386 121.721 77.0521 123.393 77.516 124.557C77.745 125.13 77.9241 125.577 78.0489 125.889C78.1066 126.036 78.1516 126.151 78.1846 126.236C78.2146 126.315 78.2286 126.356 78.2261 126.357Z" fill="#455A64"/>
<path d="M72.6568 77.4923C72.6499 77.5004 72.5838 77.4467 72.4668 77.3385C72.3582 77.2243 72.2266 77.0321 72.1145 76.7722C71.8902 76.2508 71.7763 75.4727 71.7595 74.6237C71.7439 73.7726 71.8069 73.006 71.8628 72.4541C71.9202 71.9022 71.9673 71.5624 71.9879 71.564C72.0097 71.5655 72.0013 71.9094 71.972 72.4625C71.9442 73.0157 71.899 73.7792 71.9142 74.6206C71.9311 75.4599 72.0263 76.2212 72.2166 76.7322C72.3117 76.9872 72.4228 77.1781 72.513 77.2998C72.6109 77.4146 72.6634 77.4842 72.6568 77.4923Z" fill="#455A64"/>
<path d="M69.5407 71.0479C69.5563 71.0444 69.6315 71.3318 69.6028 71.8054C69.5769 72.2747 69.4168 72.9355 69.0056 73.5395C68.5938 74.1435 68.0375 74.5342 67.6101 74.7301C67.1795 74.9301 66.885 74.9654 66.8825 74.9494C66.875 74.9239 67.1564 74.8508 67.5608 74.6321C67.9632 74.4172 68.4843 74.0294 68.8777 73.4522C69.2708 72.875 69.4412 72.2485 69.4939 71.7951C69.5491 71.339 69.5142 71.0504 69.5407 71.0479Z" fill="#455A64"/>
<path d="M82.4882 86.7918C82.4911 86.7921 82.4904 86.8198 82.4867 86.8744C82.4814 86.9375 82.4748 87.0167 82.4664 87.1153C82.444 87.3381 82.4131 87.6473 82.3738 88.0398C82.2851 88.8541 82.1588 90.0116 82.0037 91.4374C81.678 94.3147 81.23 98.2702 80.7354 102.639C80.5442 104.827 80.7351 106.932 81.1457 108.787C81.3485 109.717 81.6175 110.58 81.9001 111.379C82.1803 112.179 82.4415 112.924 82.6804 113.606C83.15 114.961 83.5316 116.061 83.7999 116.835C83.9259 117.209 84.0252 117.503 84.0969 117.715C84.1269 117.81 84.1512 117.885 84.1706 117.946C84.1865 117.998 84.193 118.025 84.1905 118.026C84.188 118.027 84.1762 118.001 84.1556 117.951C84.1325 117.892 84.1035 117.818 84.0676 117.726C83.9893 117.516 83.881 117.225 83.7431 116.855C83.4639 116.085 83.0664 114.99 82.5775 113.642C82.3332 112.962 82.0661 112.218 81.7794 111.421C81.4905 110.622 81.2147 109.752 81.0069 108.818C80.5857 106.952 80.3885 104.83 80.5813 102.626C81.0686 98.2446 81.5529 94.2925 81.8951 91.4259C82.0711 90.0025 82.2137 88.8469 82.3142 88.0338C82.3659 87.6426 82.4065 87.3343 82.4358 87.1122C82.4505 87.0142 82.462 86.9356 82.4714 86.8729C82.4798 86.8189 82.4858 86.7914 82.4882 86.7918Z" fill="#455A64"/>
<path d="M68.4624 70.5899L69.7404 67.3242L72.6569 71.6732L68.7685 70.701" fill="#FFBE9D"/>
<path d="M98.9829 60.7722L95.5213 53.0124C95.1075 51.7647 94.3313 51.571 93.6811 50.8472L85.0097 45.9566C78.6901 43.3682 75.2494 52.049 75.2494 52.049L69.5055 65.1505C62.751 67.3897 67.5336 72.5773 67.5336 72.5773C67.5336 72.5773 65.6963 69.3837 67.503 68.2315C69.395 67.025 71.4926 70.2036 73.5078 73.2228C75.8871 76.7871 83.6185 79.1025 83.6185 79.1025C84.5229 78.1471 84.2699 74.8122 84.9778 73.0222C85.2025 72.4547 90.5564 60.0536 90.5564 60.0536L92.6318 65.0818C92.6318 65.0818 95.2922 61.9628 96.5814 61.467C97.8709 60.9706 98.9829 60.7722 98.9829 60.7722Z" fill="#E8505B"/>
<path d="M83.6184 66.2864C83.6234 66.2946 83.5326 66.3635 83.356 66.4696C83.1798 66.576 82.913 66.7126 82.567 66.8434C81.8812 67.1076 80.8432 67.3126 79.7175 67.1388C78.5915 66.965 77.6636 66.4565 77.0892 65.9978C76.7991 65.7688 76.586 65.5582 76.4499 65.4035C76.3136 65.249 76.2477 65.1558 76.2549 65.1495C76.2765 65.1292 76.5679 65.4818 77.1554 65.9102C77.736 66.3382 78.6467 66.8165 79.7412 66.9856C80.8354 67.1544 81.8478 66.9732 82.5305 66.7401C83.2197 66.5089 83.6041 66.2605 83.6184 66.2864Z" fill="#263238"/>
<path d="M69.2483 53.982L74.5997 54.4868L83.1604 45.4385L78.1256 45.2656L69.1597 46.1505C69.1597 46.1505 69.9537 49.8876 69.2483 53.982Z" fill="#E8505B"/>
<path d="M76.6812 49.2142C76.6859 49.2167 76.6631 49.2738 76.6157 49.3802C76.5595 49.5009 76.4884 49.6538 76.401 49.8419C76.2048 50.2609 75.9355 50.8356 75.607 51.5373C74.9415 52.9713 74.0586 54.9687 73.1017 57.1836C72.1447 59.3994 71.274 61.404 70.6159 62.8426C70.2874 63.5624 70.0163 64.1421 69.8213 64.5393C69.7289 64.7252 69.6537 64.8763 69.5945 64.9954C69.5411 65.099 69.5108 65.1524 69.5059 65.1499C69.5009 65.1477 69.5218 65.09 69.5661 64.982C69.6185 64.8594 69.6849 64.7043 69.7664 64.5137C69.9517 64.0897 70.2054 63.5081 70.5155 62.7977C71.1482 61.3282 72.0084 59.3298 72.9591 57.1215C73.9163 54.906 74.8161 52.9136 75.5075 51.4902C75.8522 50.7779 76.139 50.2054 76.3468 49.8145C76.4447 49.6316 76.5246 49.4828 76.5876 49.3655C76.6444 49.2641 76.6762 49.212 76.6812 49.2142Z" fill="#263238"/>
<path d="M93.0132 51.8457C93.0282 51.8719 92.6962 52.0451 92.2435 52.4304C92.0155 52.6207 91.7683 52.875 91.5203 53.1783C91.2794 53.4871 91.0417 53.8478 90.8417 54.2534C90.6473 54.6618 90.5113 55.0721 90.418 55.4524C90.3338 55.8349 90.287 56.1866 90.2789 56.4833C90.257 57.0773 90.3266 57.4449 90.2966 57.4495C90.286 57.4514 90.2636 57.3612 90.2314 57.1949C90.2137 57.1119 90.1965 57.0099 90.1896 56.8895C90.1812 56.7697 90.1628 56.6327 90.1694 56.4811C90.1634 56.1775 90.1996 55.8156 90.2786 55.4212C90.3662 55.029 90.5019 54.6053 90.7019 54.1857C90.9075 53.7689 91.1559 53.3998 91.4092 53.0881C91.6698 52.7817 91.9315 52.5293 92.1736 52.3458C92.2888 52.2466 92.4073 52.1761 92.5069 52.1087C92.6054 52.0398 92.6965 51.9898 92.7727 51.9524C92.9234 51.8744 93.0082 51.836 93.0132 51.8457Z" fill="#263238"/>
<path d="M94.5099 39.4251L89.4895 48.8091C88.6699 50.3413 86.8051 50.9787 85.2192 50.2689C83.4729 49.4877 82.7503 47.392 83.6448 45.7009C84.1181 44.8058 84.5109 44.0748 84.5109 44.0748C84.5109 44.0748 82.3282 42.6602 83.349 40.3018C84.2598 38.1976 87.6032 32.2587 88.3133 31.0029L92.5446 32.8965C94.9208 34.131 95.8097 37.0838 94.5099 39.4251Z" fill="#FFBE9D"/>
<path d="M84.5215 44.0356C84.5215 44.0356 85.9498 44.8194 87.9682 44.5348C87.9682 44.5348 86.4899 45.8995 84.2441 44.6409L84.5215 44.0356Z" fill="#EB996E"/>
<path d="M86.1333 36.5298C86.0478 36.7039 86.1249 36.9198 86.3049 37.0125C86.4846 37.1048 86.6999 37.039 86.7854 36.8649C86.8708 36.6908 86.7938 36.4749 86.6141 36.3826C86.434 36.2899 86.2185 36.3557 86.1333 36.5298Z" fill="#263238"/>
<path d="M86.1526 36.2324C86.1748 36.2945 86.5124 36.2205 86.8724 36.3828C87.2343 36.5397 87.4159 36.8436 87.4746 36.8168C87.5026 36.8058 87.4955 36.7082 87.4178 36.5728C87.342 36.4386 87.1847 36.2708 86.9598 36.1712C86.7348 36.072 86.5089 36.0701 86.3626 36.106C86.2138 36.1413 86.1408 36.2037 86.1526 36.2324Z" fill="#263238"/>
<path d="M89.5061 38.193C89.4206 38.3671 89.4976 38.583 89.678 38.6754C89.8577 38.7677 90.073 38.7019 90.1585 38.5278C90.2439 38.3537 90.1669 38.1375 89.9872 38.0451C89.8068 37.9528 89.5916 38.0189 89.5061 38.193Z" fill="#263238"/>
<path d="M89.665 37.8819C89.6872 37.9443 90.0251 37.87 90.3848 38.0322C90.7467 38.1892 90.9283 38.4931 90.9873 38.4662C91.015 38.4553 91.0085 38.3577 90.9305 38.2219C90.8543 38.0878 90.6974 37.9199 90.4725 37.8204C90.2472 37.7212 90.0216 37.7193 89.875 37.7552C89.7265 37.7911 89.6535 37.8532 89.665 37.8819Z" fill="#263238"/>
<path d="M87.1607 39.9738C87.1716 39.9541 86.9647 39.815 86.6225 39.6062C86.5348 39.5557 86.4559 39.4983 86.4683 39.4284C86.4764 39.3523 86.5594 39.2702 86.6518 39.1832C86.8381 38.9991 87.033 38.8063 87.2377 38.6041C88.0623 37.7754 88.7032 37.0775 88.6695 37.0444C88.6358 37.0116 87.9403 37.6566 87.1157 38.4852C86.9145 38.6905 86.7226 38.8861 86.5395 39.0737C86.4577 39.1626 86.3448 39.2546 86.3301 39.4134C86.3242 39.4933 86.3694 39.5735 86.4212 39.6156C86.4721 39.6599 86.5236 39.6842 86.5679 39.7073C86.9242 39.8905 87.1501 39.9937 87.1607 39.9738Z" fill="#263238"/>
<path d="M88.1094 40.6989C88.0523 40.6692 87.8766 41.0602 87.4174 41.1881C86.9584 41.3169 86.5609 41.0864 86.5335 41.1397C86.5169 41.1619 86.5924 41.2573 86.7662 41.341C86.9363 41.4243 87.2133 41.4817 87.4941 41.4034C87.7746 41.3244 87.964 41.1366 88.0495 40.9818C88.1375 40.8249 88.1372 40.7085 88.1094 40.6989Z" fill="#263238"/>
<path d="M90.2045 36.4292C90.1961 36.5431 90.5767 36.6576 90.977 36.8978C91.382 37.1299 91.6674 37.4064 91.7629 37.3437C91.8069 37.3128 91.7885 37.1939 91.693 37.0373C91.5988 36.8813 91.421 36.6938 91.1798 36.5518C90.9383 36.4105 90.6878 36.3468 90.5059 36.3406C90.3227 36.3337 90.2101 36.3758 90.2045 36.4292Z" fill="#263238"/>
<path d="M86.7516 35.2452C86.7785 35.3553 87.0646 35.3815 87.365 35.5113C87.6699 35.6305 87.8917 35.813 87.9884 35.7534C88.0324 35.7231 88.0293 35.6233 87.9535 35.4966C87.8792 35.3706 87.7254 35.2261 87.5173 35.1403C87.3092 35.0551 87.0983 35.0495 86.9569 35.087C86.814 35.1241 86.7417 35.1927 86.7516 35.2452Z" fill="#263238"/>
<path d="M92.9302 40.8264C92.9779 40.827 94.7551 41.071 93.9863 42.6516C93.2175 44.2322 91.7892 43.1343 91.8085 43.0878C91.8279 43.041 92.9302 40.8264 92.9302 40.8264Z" fill="#FFBE9D"/>
<path d="M92.5827 42.7208C92.592 42.7192 92.6008 42.7536 92.637 42.7975C92.6722 42.8403 92.7434 42.8927 92.8407 42.9018C93.0376 42.9217 93.3071 42.7249 93.4531 42.4437C93.5271 42.3018 93.5636 42.1502 93.568 42.0119C93.5761 41.8728 93.5405 41.7558 93.4638 41.6999C93.3895 41.6397 93.3056 41.6612 93.2644 41.6962C93.2216 41.7302 93.2163 41.7664 93.2067 41.7651C93.2004 41.767 93.1855 41.7221 93.2301 41.6631C93.2519 41.635 93.2884 41.6066 93.3405 41.5945C93.3936 41.582 93.4569 41.5935 93.5124 41.6282C93.6304 41.6959 93.6853 41.8612 93.6809 42.0132C93.6828 42.1689 93.645 42.3408 93.562 42.5002C93.397 42.8138 93.089 43.0325 92.8282 42.9876C92.7031 42.9626 92.6263 42.884 92.5967 42.8231C92.5671 42.7604 92.5758 42.7211 92.5827 42.7208Z" fill="#EB996E"/>
<path d="M93.8467 41.1723C93.6286 41.0038 93.1045 41.04 92.8979 41.2225C92.6911 41.4047 92.5519 41.654 92.3457 41.8365C92.1391 42.019 91.8115 42.121 91.5925 41.9538C91.4415 41.8384 91.3916 41.6259 91.4222 41.4384C91.4527 41.2506 91.5501 41.0815 91.649 40.9189C92.0786 40.2122 92.5685 39.5402 92.936 38.7995C93.3035 38.0588 93.5469 37.227 93.4383 36.4074C93.3297 35.5875 92.814 34.7897 92.0343 34.5136C91.5179 34.3307 90.9445 34.3859 90.4185 34.2337C89.7948 34.0534 89.2669 33.5682 89.0341 32.962C89.0042 32.8843 88.8279 32.6072 88.8279 32.6072C88.8454 32.5685 89.0319 32.25 89.2185 32.187C90.6072 31.718 92.4908 32.2565 93.642 33.1638C94.7933 34.0711 95.5995 35.5313 95.6136 36.9968C95.627 38.4625 94.7047 40.0793 93.8467 41.1723Z" fill="#263238"/>
<path d="M93.862 41.0115C94.301 40.2648 95.0136 39.7232 95.5577 39.0493C96.1015 38.3751 96.4753 37.425 96.0881 36.6503C95.9558 36.3854 95.744 36.1636 95.6335 35.889C95.5224 35.6129 95.5221 35.3072 95.4794 35.0126C95.3474 34.1025 94.7721 33.267 93.9687 32.8193C93.4133 32.5095 92.7722 32.3825 92.2093 32.0867C91.3179 31.6181 90.6658 30.7495 89.7292 30.3791C89.4185 30.2562 89.0547 30.1966 88.7573 30.3498C88.4603 30.503 88.3009 30.9339 88.5174 31.1888C88.479 30.8899 88.0915 30.7258 87.8167 30.8499C87.5421 30.9741 87.4014 31.3011 87.4201 31.6018C87.4388 31.9026 87.588 32.18 87.7605 32.4271C88.3293 33.2417 89.1991 33.8408 90.1629 34.0816L92.3166 33.9138L94.0822 35.2223L95.3892 37.3021L93.0196 40.3806L93.862 41.0115Z" fill="#263238"/>
<path d="M80.3877 28.7334C80.1169 24.5414 76.4989 21.3627 72.3069 21.6335C68.1149 21.9043 64.9362 25.5223 65.207 29.7143C65.4033 32.7495 67.3542 35.252 70.0068 36.3C70.0649 37.1995 70.1304 38.2148 70.1304 38.2148L76.7831 37.7848C76.7831 37.7848 76.7538 36.7075 76.7067 35.7472C79.0698 34.3288 80.5777 31.6734 80.3877 28.7334Z" fill="#E8505B"/>
<path d="M74.3755 37.9089C74.3755 37.9089 74.3743 37.8768 74.3771 37.8147C74.3802 37.7489 74.3846 37.6571 74.3905 37.5389C74.4042 37.2965 74.4242 36.9392 74.4617 36.4797C74.4997 36.0201 74.5534 35.4579 74.657 34.8101C74.7637 34.164 74.9184 33.4283 75.2092 32.6533C75.3549 32.2661 75.5268 31.868 75.7602 31.4771C75.8806 31.2855 76.0348 31.0961 76.2491 30.9775C76.4631 30.8577 76.7392 30.8396 76.9714 30.9545C77.0862 31.0112 77.187 31.1129 77.231 31.2393C77.2793 31.3632 77.2759 31.5083 77.2244 31.6309C77.1227 31.8786 76.9096 32.0602 76.6706 32.1741C76.1808 32.3819 75.6001 32.375 75.0853 32.1644C74.569 31.9541 74.1387 31.5126 73.9319 30.9672C73.832 30.6961 73.7678 30.396 73.8305 30.0946C73.8829 29.7957 74.1521 29.5136 74.486 29.5227C74.6513 29.5242 74.8077 29.6269 74.8897 29.7654C74.9749 29.903 75.0052 30.0702 74.9808 30.2294C74.9281 30.5507 74.715 30.8025 74.496 31.0181C74.0433 31.4443 73.4058 31.7061 72.76 31.6458C72.1185 31.5853 71.5211 31.2025 71.2215 30.6465C71.0658 30.3738 71.0106 30.0341 71.1108 29.7305C71.1613 29.5807 71.2683 29.4369 71.4218 29.3732C71.5725 29.3037 71.7494 29.3205 71.892 29.386C72.0362 29.4506 72.1572 29.5645 72.234 29.6983C72.3132 29.8316 72.3557 29.9807 72.3781 30.128C72.4187 30.4241 72.3956 30.7223 72.3188 31.0028C72.1694 31.565 71.8062 32.0549 71.331 32.3447C70.8581 32.6377 70.2936 32.7438 69.7745 32.662C69.518 32.6224 69.2528 32.5382 69.0678 32.3438C68.8868 32.1541 68.8191 31.8396 68.9786 31.6153C69.0581 31.5073 69.1839 31.4443 69.309 31.4265C69.4347 31.4093 69.5617 31.4268 69.6756 31.4736C69.908 31.5703 70.0593 31.7703 70.1738 31.9644C70.3913 32.3638 70.5701 32.7538 70.7498 33.1257C71.4555 34.6164 71.9678 35.8491 72.3126 36.7037C72.4848 37.1311 72.6134 37.4653 72.6998 37.6921C72.741 37.8032 72.7728 37.889 72.7959 37.9507C72.8171 38.0094 72.8255 38.04 72.8255 38.04C72.8255 38.04 72.8109 38.0116 72.7868 37.9542C72.7619 37.893 72.7269 37.8082 72.6823 37.6986C72.5887 37.4706 72.453 37.1405 72.2789 36.7171C71.9238 35.8669 71.4028 34.6389 70.6902 33.1537C70.5099 32.785 70.3261 32.3903 70.1118 32.0006C70.0007 31.8125 69.854 31.6265 69.6475 31.5426C69.4472 31.4596 69.1751 31.4777 69.041 31.6605C68.9093 31.8421 68.9645 32.1226 69.1258 32.2883C69.2909 32.4617 69.5392 32.5432 69.7873 32.5803C70.2871 32.6573 70.8318 32.5538 71.2858 32.2708C71.7413 31.9915 72.0895 31.5201 72.2327 30.9788C72.3064 30.7092 72.3276 30.4212 72.2886 30.1404C72.2505 29.8643 72.1154 29.5817 71.8546 29.4681C71.7295 29.4113 71.5825 29.3985 71.459 29.4562C71.3329 29.5086 71.2437 29.6263 71.1981 29.7595C71.1092 30.0319 71.156 30.3448 71.3036 30.6013C71.5863 31.127 72.1588 31.4948 72.7687 31.5516C73.3834 31.6097 73.9971 31.3591 74.4323 30.9495C74.6445 30.7423 74.8448 30.4986 74.8897 30.2147C74.9112 30.0762 74.8841 29.9302 74.8117 29.8128C74.7409 29.6952 74.6173 29.615 74.4829 29.6132C74.3487 29.6085 74.2136 29.6675 74.1135 29.7595C74.0114 29.8503 73.9484 29.9782 73.9191 30.1133C73.8611 30.386 73.9197 30.6752 74.0155 30.9348C74.2127 31.4577 74.6251 31.8823 75.1187 32.0842C75.6098 32.2883 76.1748 32.2939 76.6363 32.0989C76.8603 31.994 77.0606 31.8203 77.1502 31.6012C77.2462 31.3835 77.1439 31.1192 76.9361 31.0228C76.7327 30.9204 76.4778 30.9342 76.2853 31.0424C76.0872 31.151 75.9393 31.3289 75.8213 31.5151C75.5917 31.8958 75.4173 32.2936 75.2713 32.6761C74.9786 33.4439 74.8198 34.1749 74.7088 34.8183C74.6005 35.4628 74.5418 36.0238 74.4982 36.4822C74.4598 36.9383 74.4301 37.294 74.4095 37.5395C74.3999 37.6575 74.3924 37.7489 74.3871 37.8147C74.3808 37.8774 74.3755 37.9089 74.3755 37.9089Z" fill="#263238"/>
<path d="M76.3508 39.0499L70.639 39.419C70.4022 39.4343 70.1978 39.2549 70.1825 39.0181C70.1673 38.7813 70.3467 38.5769 70.5835 38.5617L76.2953 38.1926C76.5321 38.1773 76.7364 38.3567 76.7517 38.5935C76.767 38.8303 76.5876 39.0346 76.3508 39.0499Z" fill="#263238"/>
<path d="M76.3751 39.4238L70.6633 39.7929C70.4265 39.8081 70.2471 40.0125 70.2624 40.2493C70.2777 40.4861 70.482 40.6655 70.7188 40.6502L71.3456 40.6097L72.2798 42.1391C72.3868 42.3141 72.5818 42.4152 72.7861 42.4021L74.8273 42.2701C75.0338 42.2567 75.2157 42.1288 75.2981 41.9388L76.0044 40.3086L76.4306 40.2811C76.6674 40.2658 76.8468 40.0615 76.8315 39.8247C76.8159 39.5879 76.6119 39.4085 76.3751 39.4238Z" fill="#263238"/>
<g opacity="0.2">
<path d="M67.6084 24.7031C68.0883 24.1989 68.6019 23.8335 69.0633 23.5945C69.5247 23.3543 69.926 23.2264 70.2111 23.1789C70.4966 23.1306 70.6617 23.1477 70.6795 23.2073C70.7213 23.3431 70.159 23.5845 69.4174 24.1524C68.678 24.709 67.7676 25.6581 67.2646 26.9488C66.7654 28.2411 66.7976 29.5562 66.9682 30.466C67.133 31.3858 67.3854 31.9427 67.2628 32.0148C67.2094 32.0466 67.0759 31.948 66.8977 31.7199C66.7192 31.4925 66.509 31.1278 66.3305 30.6392C66.1511 30.1515 66.0182 29.5356 66.0038 28.8396C65.9882 28.145 66.103 27.3703 66.3932 26.6109" fill="white"/>
</g>
<g opacity="0.2">
<path d="M72.5257 23.4155C72.0443 23.442 71.6113 23.3381 71.5457 23.0864C71.5164 22.9616 71.5966 22.8212 71.7635 22.7048C71.9295 22.5887 72.1825 22.4998 72.4702 22.4826C72.7579 22.4658 73.0196 22.5238 73.1981 22.6193C73.3778 22.7151 73.4742 22.8449 73.4599 22.9725" fill="white"/>
</g>
<path d="M75.2 42.0824C75.1941 42.097 75.0462 42.0406 74.7997 41.9869C74.5539 41.9326 74.2054 41.8924 73.8229 41.9273C73.4407 41.9638 73.1056 42.0683 72.8741 42.1672C72.6419 42.2658 72.5072 42.3485 72.4987 42.3354C72.4928 42.3273 72.6157 42.2237 72.8466 42.107C73.0762 41.99 73.4198 41.8718 73.8144 41.834C74.2091 41.7978 74.5685 41.8502 74.816 41.9223C75.0643 41.9944 75.2044 42.0733 75.2 42.0824Z" fill="#455A64"/>
<path d="M76.0174 40.329C76.019 40.3546 74.9878 40.4423 73.7142 40.5246C72.4403 40.607 71.4063 40.6529 71.4048 40.627C71.4032 40.6014 72.4341 40.5137 73.7083 40.4313C74.9819 40.349 76.0158 40.3031 76.0174 40.329Z" fill="#455A64"/>
<path d="M75.7037 41.029C75.7053 41.0415 75.4919 41.0783 75.145 41.1226C74.798 41.1669 74.3178 41.2181 73.7859 41.2602C73.2539 41.302 72.7713 41.3269 72.4218 41.3372C72.0724 41.3479 71.8558 41.345 71.8552 41.3323C71.8546 41.3191 72.0699 41.2986 72.4181 41.2711C72.7943 41.2424 73.2614 41.2065 73.7784 41.1669C74.2948 41.1251 74.7618 41.0873 75.1378 41.0568C75.4863 41.0293 75.7022 41.0159 75.7037 41.029Z" fill="#455A64"/>
<path d="M34.5693 79.2412L35.8095 81.2283C35.8095 81.2283 41.1014 76.3586 46.3511 77.7352C46.3511 77.7352 41.6333 73.7347 34.5693 79.2412Z" fill="#E8505B"/>
<path d="M46.3511 77.7351C46.3511 77.7351 50.2355 73.5172 55.931 74.4794L57.4842 74.7134L56.9881 73.816C56.9881 73.816 47.0824 70.4234 46.3511 77.7351Z" fill="#E8505B"/>
<path d="M38.1523 63.5133C38.1523 63.5133 30.3717 62.1749 25.2683 64.9357L33.3716 80.1925C33.3716 80.1925 40.0044 73.799 46.3514 77.7362L38.1523 63.5133Z" fill="#F5F5F5"/>
<path d="M38.1521 63.513C38.153 63.5115 38.1671 63.5324 38.1936 63.5751C38.2226 63.6232 38.261 63.6862 38.3103 63.7673C38.4151 63.9445 38.5649 64.1979 38.7586 64.5255C39.1518 65.1988 39.7224 66.1756 40.4453 67.4136C41.8949 69.9134 43.9547 73.4661 46.4107 77.7015C46.4298 77.7343 46.4185 77.7764 46.3858 77.7951C46.3633 77.8082 46.3359 77.8067 46.315 77.7939C45.4348 77.2535 44.4236 76.8435 43.3319 76.6488C42.785 76.559 42.2215 76.5209 41.6502 76.5322C41.0793 76.5552 40.5024 76.6273 39.9274 76.749C37.6292 77.2588 35.3965 78.5068 33.4915 80.1857L33.4247 80.2478C33.3938 80.2774 33.3448 80.2765 33.3152 80.2459C33.3105 80.2409 33.3055 80.234 33.3024 80.2284C30.2922 74.55 27.5023 69.2869 25.2113 64.9654C25.1944 64.9351 25.2054 64.8971 25.2356 64.8802L25.2372 64.8793C27.0215 63.9567 28.832 63.5567 30.4236 63.3442C32.0222 63.138 33.4262 63.1311 34.5738 63.1639C35.7223 63.202 36.6183 63.2943 37.2258 63.3692C37.5297 63.406 37.7615 63.4416 37.9172 63.4675C37.9911 63.4806 38.0488 63.4909 38.0938 63.499C38.134 63.5068 38.153 63.5115 38.1521 63.513C38.1512 63.5143 38.13 63.5124 38.091 63.508C38.046 63.5024 37.9883 63.4956 37.9144 63.4865C37.7581 63.4672 37.5256 63.4378 37.2214 63.4069C36.6133 63.3442 35.7182 63.264 34.5719 63.2369C33.4269 63.2154 32.0272 63.2322 30.4373 63.4466C28.8548 63.6665 27.058 64.0737 25.2983 64.9913L25.3242 64.9055C27.6218 69.2232 30.4204 74.482 33.4397 80.1557L33.3174 80.1364L33.3866 80.0718C34.347 79.2116 35.3971 78.4906 36.4888 77.8953C37.5827 77.3053 38.7293 76.8538 39.8956 76.6024C40.479 76.4797 41.0649 76.4074 41.6456 76.3849C42.2265 76.3743 42.7997 76.4139 43.3563 76.5066C44.4673 76.7069 45.4953 77.1268 46.3867 77.6775L46.2909 77.7702C43.8617 73.5313 41.824 69.9761 40.3904 67.4742C39.6797 66.2252 39.1187 65.2393 38.7321 64.5598C38.544 64.2253 38.3986 63.9664 38.2969 63.7851C38.2504 63.7002 38.2142 63.6341 38.1867 63.5838C38.1627 63.5383 38.1509 63.5146 38.1521 63.513Z" fill="#263238"/>
<path d="M50.3822 60.3825C50.3822 60.3825 44.4966 56.6313 38.252 63.5131L46.451 77.7356C46.451 77.7356 48.1243 71.963 57.9126 73.9707L50.3822 60.3825Z" fill="#F5F5F5"/>
<path d="M50.3824 60.3819C50.3837 60.3807 50.3968 60.4006 50.4214 60.4415C50.4486 60.4877 50.4838 60.5479 50.5294 60.6256C50.6261 60.7953 50.764 61.0371 50.9422 61.3497C51.3038 61.9931 51.8279 62.9257 52.4922 64.1075C53.8226 66.494 55.7142 69.8867 57.9725 73.9371C57.9909 73.9698 57.979 74.0113 57.9463 74.0297C57.9322 74.0375 57.9166 74.04 57.9019 74.0375L57.8991 74.0369C57.4224 73.9586 56.9366 73.8787 56.4418 73.7973C56.1953 73.7477 55.9429 73.7339 55.6889 73.7137C55.435 73.6934 55.1788 73.6731 54.9208 73.6525C54.6628 73.6223 54.4019 73.6285 54.1392 73.6335C53.8765 73.6369 53.612 73.64 53.3452 73.6435C53.0787 73.6497 52.8135 73.6978 52.5449 73.7227C52.2772 73.7567 52.0042 73.7711 51.7403 73.8441C51.4738 73.9043 51.2058 73.9648 50.9359 74.026C50.6751 74.1171 50.413 74.2088 50.1494 74.3012C49.8854 74.3926 49.6427 74.538 49.3859 74.6543C49.2558 74.7105 49.1366 74.7863 49.0187 74.8649L48.6599 75.0949C48.4234 75.2528 48.2115 75.4471 47.9882 75.6269C47.7916 75.8356 47.5701 76.024 47.3982 76.2583C47.0303 76.7014 46.7161 77.2121 46.5258 77.7559L46.5243 77.76C46.5102 77.8002 46.4659 77.8215 46.4257 77.8074C46.4076 77.8012 46.3932 77.7884 46.3842 77.7731C46.2796 77.5921 46.1667 77.3962 46.0538 77.1996C43.1547 72.1618 40.4534 67.4671 38.196 63.5443C38.1814 63.5194 38.1857 63.4882 38.2042 63.4679C39.5907 61.956 41.1207 60.8022 42.6458 60.1286C44.1674 59.4381 45.6519 59.2662 46.8353 59.3423C48.0265 59.416 48.9291 59.7061 49.5154 59.9429C49.8102 60.0618 50.0268 60.1735 50.1709 60.2512C50.238 60.2905 50.2907 60.3211 50.3316 60.3448C50.3668 60.3688 50.3837 60.3807 50.3824 60.3819C50.3812 60.3832 50.3618 60.3735 50.326 60.3541C50.2842 60.3326 50.2305 60.3052 50.1615 60.2699C50.0149 60.1982 49.7962 60.093 49.5007 59.9807C48.9126 59.7567 48.0125 59.4809 46.8309 59.4188C45.6569 59.3545 44.1905 59.5348 42.6885 60.2265C41.1831 60.9014 39.6721 62.0505 38.3002 63.5565L38.3084 63.4801C40.5719 67.3994 43.2804 72.0897 46.1873 77.1232C46.3005 77.3195 46.4135 77.5154 46.5177 77.6967L46.3764 77.7138C46.5801 77.1316 46.8996 76.6196 47.278 76.1616C47.4549 75.9214 47.6811 75.7283 47.8833 75.5145C48.1117 75.3305 48.3295 75.1317 48.5713 74.9704L48.9382 74.7358C49.0593 74.6556 49.1812 74.5785 49.3135 74.5211C49.5753 74.4023 49.8236 74.2544 50.0926 74.1617C50.3612 74.0681 50.6283 73.9751 50.8938 73.8828C51.1677 73.821 51.4401 73.7598 51.7106 73.699C51.9793 73.6251 52.2554 73.611 52.5265 73.577C52.7986 73.5517 53.0675 73.504 53.3368 73.4981C53.606 73.4953 53.8734 73.4922 54.1389 73.4893C54.4044 73.4847 54.6678 73.479 54.9277 73.5099C55.1879 73.5311 55.4459 73.5524 55.702 73.5733C55.9579 73.5942 56.2128 73.6092 56.4602 73.6594C56.9578 73.7424 57.4467 73.8241 57.926 73.9043L57.8527 74.0041C55.6181 69.9475 53.7461 66.5495 52.4295 64.1593C51.7783 62.9678 51.2648 62.0274 50.9103 61.3791C50.7391 61.0608 50.6061 60.814 50.5132 60.6412C50.4711 60.5607 50.4383 60.498 50.413 60.4499C50.3918 60.4059 50.3812 60.3832 50.3824 60.3819Z" fill="#263238"/>
<path d="M27.46 57.6016L36.2346 74.4967C36.2346 74.4967 43.366 74.1847 46.3843 77.66L38.2523 63.5127C38.2523 63.5127 33.4837 57.6016 27.46 57.6016Z" fill="#F5F5F5"/>
<path d="M27.4599 57.6018C27.4599 57.6018 27.5323 57.6031 27.6824 57.609C27.8418 57.6156 28.0674 57.6246 28.3588 57.6368C28.4333 57.6411 28.5135 57.6421 28.5959 57.6508C28.6773 57.6642 28.7628 57.6783 28.852 57.6929C29.0318 57.7229 29.2274 57.7553 29.4386 57.7906C29.6526 57.8162 29.8726 57.8879 30.1107 57.951C30.3462 58.0227 30.6058 58.0711 30.8632 58.1737C32.9601 58.8717 35.7725 60.563 38.3013 63.4734L38.306 63.4796L38.3069 63.4815C40.6222 67.5013 43.4249 72.3678 46.451 77.6216C46.4722 77.6587 46.4598 77.7058 46.4226 77.7274C46.3917 77.7452 46.3537 77.7392 46.3297 77.7152L46.3256 77.7112C46.217 77.6032 46.0994 77.4862 45.9815 77.3689C45.3288 76.7362 44.5562 76.237 43.7354 75.8844C42.9189 75.5237 42.0755 75.2448 41.2253 75.062C39.5293 74.681 37.8367 74.5375 36.2377 74.5693H36.2358C36.2074 74.5699 36.1825 74.554 36.1703 74.5303C33.6122 69.5698 31.427 65.3322 29.8779 62.328C29.1138 60.8395 28.5067 59.6567 28.0873 58.8395C27.8836 58.4408 27.7257 58.1313 27.6156 57.9157C27.565 57.8155 27.526 57.7379 27.4967 57.6795C27.4705 57.6271 27.458 57.6009 27.4599 57.6018C27.4618 57.6028 27.4777 57.6315 27.5073 57.6861C27.5395 57.746 27.5819 57.8255 27.6368 57.9282C27.7519 58.1463 27.917 58.4586 28.1295 58.8617C28.5591 59.6791 29.1809 60.8625 29.9637 62.3523C31.5234 65.3341 33.7236 69.5402 36.2992 74.4635L36.2318 74.4245C37.8492 74.3893 39.5462 74.5309 41.2597 74.9134C42.1177 75.0969 42.9707 75.378 43.7993 75.7437C44.6317 76.1009 45.4208 76.6089 46.0903 77.2581C46.2111 77.3786 46.3318 77.4987 46.4432 77.6094L46.3175 77.6987C43.3004 72.4396 40.5059 67.5683 38.1974 63.5448L38.203 63.5529C36.9678 62.1009 35.6212 60.9636 34.3623 60.0775C33.0915 59.2043 31.8828 58.5971 30.8401 58.2421C30.5849 58.1375 30.3278 58.087 30.0944 58.0127C29.8586 57.9472 29.6402 57.873 29.428 57.8449C29.2183 57.8068 29.024 57.7716 28.8458 57.7391C28.7569 57.7229 28.672 57.7073 28.5912 57.6926C28.5107 57.6826 28.4343 57.6805 28.3622 57.6742C27.8262 57.6315 27.5772 57.6112 27.4599 57.6018Z" fill="#263238"/>
<path d="M54.8495 105.519L55.038 105.832C55.2495 106.184 55.5572 106.467 55.9247 106.649L56.2523 106.811L55.939 106.999C55.5877 107.211 55.3041 107.518 55.1225 107.886L54.9606 108.213L54.7722 107.9C54.5606 107.549 54.253 107.266 53.8855 107.084L53.5579 106.922L53.8708 106.734C54.2221 106.522 54.5057 106.214 54.6873 105.847L54.8495 105.519Z" fill="#E8505B"/>
<path d="M37.5505 41.1648L37.7389 41.4777C37.9505 41.829 38.2581 42.1126 38.6256 42.2942L38.9532 42.4562L38.6403 42.6446C38.289 42.8561 38.0054 43.1638 37.8235 43.5313L37.6615 43.8589L37.4731 43.546C37.2616 43.1947 36.9539 42.9111 36.5864 42.7295L36.2588 42.5675L36.572 42.3791C36.9234 42.1676 37.207 41.8599 37.3885 41.4924L37.5505 41.1648Z" fill="#E8505B"/>
<path d="M117.605 52.2656L117.794 52.5789C118.005 52.9302 118.313 53.2138 118.681 53.3954L119.008 53.5573L118.695 53.7458C118.344 53.9573 118.06 54.2649 117.878 54.6325L117.716 54.9601L117.528 54.6471C117.316 54.2958 117.009 54.0122 116.641 53.8306L116.314 53.6687L116.627 53.4802C116.978 53.2687 117.262 52.9611 117.443 52.5935L117.605 52.2656Z" fill="#E8505B"/>
<path d="M108.152 109.559L108.34 109.873C108.552 110.224 108.859 110.507 109.227 110.689L109.554 110.851L109.242 111.039C108.89 111.251 108.607 111.559 108.425 111.926L108.263 112.254L108.075 111.941C107.863 111.59 107.555 111.306 107.188 111.124L106.86 110.962L107.174 110.774C107.525 110.562 107.809 110.254 107.99 109.887L108.152 109.559Z" fill="#E8505B"/>
<path d="M109.951 121.6L110.042 121.636C110.143 121.677 110.253 121.688 110.361 121.667L110.456 121.649L110.42 121.74C110.379 121.841 110.369 121.951 110.389 122.059L110.407 122.154L110.317 122.118C110.216 122.077 110.105 122.067 109.998 122.087L109.902 122.105L109.938 122.015C109.979 121.914 109.99 121.803 109.969 121.696L109.951 121.6Z" fill="#E8505B"/>
<path d="M115.395 40.189L115.485 40.2252C115.586 40.266 115.697 40.2766 115.804 40.2564L115.9 40.2383L115.863 40.3284C115.823 40.4295 115.812 40.5406 115.832 40.6476L115.85 40.7431L115.76 40.7069C115.659 40.666 115.548 40.6554 115.441 40.6757L115.345 40.6938L115.382 40.6036C115.422 40.5022 115.433 40.3918 115.413 40.2844L115.395 40.189Z" fill="#E8505B"/>
<path d="M41.0691 32.7573L41.1592 32.7935C41.2603 32.8341 41.3711 32.845 41.4784 32.8247L41.5739 32.8066L41.5377 32.8968C41.4971 32.9979 41.4862 33.1089 41.5065 33.216L41.5246 33.3114L41.4344 33.2752C41.333 33.2344 41.2223 33.2238 41.1152 33.244L41.0198 33.2621L41.056 33.172C41.0968 33.0709 41.1074 32.9601 41.0872 32.8528L41.0691 32.7573Z" fill="#E8505B"/>
<path d="M50.2424 96.1465L50.3326 96.1827C50.4337 96.2232 50.5447 96.2342 50.6518 96.2139L50.7472 96.1958L50.711 96.286C50.6702 96.387 50.6596 96.4981 50.6798 96.6051L50.6979 96.7006L50.6078 96.6644C50.5067 96.6235 50.3956 96.6129 50.2886 96.6332L50.1931 96.6513L50.2293 96.5611C50.2699 96.46 50.2808 96.3493 50.2605 96.242L50.2424 96.1465Z" fill="#E8505B"/>
<path d="M60.1871 120.648C60.1871 120.648 60.1599 120.68 60.1019 120.739C60.0392 120.801 59.9534 120.886 59.8426 120.996C59.6077 121.225 59.2691 121.555 58.8345 121.978C57.9494 122.832 56.6742 124.062 55.0946 125.585L55.1093 125.549C55.2871 129.464 55.5286 134.784 55.7975 140.702L55.8038 140.836L55.6921 140.761C55.2631 140.474 54.8041 140.168 54.3417 139.858C51.261 137.796 48.3451 135.844 45.7789 134.126L45.7614 134.114L45.7549 134.095C44.4772 130.279 43.3996 127.061 42.6389 124.79C42.2655 123.66 41.9697 122.767 41.7653 122.149C41.6677 121.847 41.5919 121.613 41.5388 121.448C41.5154 121.372 41.497 121.313 41.483 121.267C41.4708 121.226 41.4655 121.206 41.4671 121.205C41.4686 121.204 41.477 121.224 41.4923 121.264C41.5089 121.309 41.5301 121.367 41.5575 121.442C41.6149 121.605 41.6967 121.837 41.8021 122.137C42.014 122.752 42.3207 123.642 42.7082 124.766C43.4801 127.034 44.574 130.247 45.8706 134.056L45.8466 134.024C48.415 135.739 51.3337 137.688 54.4169 139.746C54.8793 140.055 55.3383 140.362 55.7673 140.649L55.6618 140.708C55.4085 134.79 55.1804 129.469 55.0128 125.553L55.0119 125.531L55.0278 125.516C56.6203 124.006 57.9054 122.786 58.7977 121.94C59.2398 121.525 59.5846 121.201 59.8236 120.977C59.9384 120.871 60.0273 120.789 60.0922 120.729C60.1534 120.673 60.1871 120.648 60.1871 120.648Z" fill="#E8505B"/>
<path d="M56.2012 138.919L56.1741 139.802L56.8864 140.326L56.0377 140.572L55.7601 141.412L55.263 140.681L54.3792 140.676L54.9205 139.977L54.6518 139.135L55.4836 139.434L56.2012 138.919Z" fill="#E8505B"/>
<path d="M45.8865 132.924L45.9036 133.496L46.3844 133.806L45.8459 133.999L45.6996 134.552L45.3495 134.1L44.7786 134.131L45.1005 133.659L44.894 133.125L45.4431 133.286L45.8865 132.924Z" fill="#E8505B"/>
<path d="M41.4435 120.154L41.875 120.708L42.5758 120.666L42.1824 121.248L42.4382 121.902L41.7637 121.707L41.2211 122.152L41.1977 121.451L40.6064 121.072L41.2663 120.833L41.4435 120.154Z" fill="#E8505B"/>
<path d="M59.7561 119.603L60.1873 120.157L60.888 120.116L60.4946 120.697L60.7505 121.351L60.0759 121.156L59.5333 121.601L59.5099 120.9L58.9187 120.521L59.5786 120.282L59.7561 119.603Z" fill="#E8505B"/>
<path d="M54.9482 124.952L55.2237 125.305L55.6708 125.279L55.4196 125.65L55.5831 126.067L55.1526 125.943L54.8062 126.227L54.7913 125.779L54.4141 125.538L54.8353 125.385L54.9482 124.952Z" fill="#E8505B"/>
<path d="M38.436 101.354C41.8727 101.354 44.6588 98.5676 44.6588 95.1308C44.6588 91.694 41.8727 88.908 38.436 88.908C34.9992 88.908 32.2131 91.694 32.2131 95.1308C32.2131 98.5676 34.9992 101.354 38.436 101.354Z" fill="#E8505B"/>
<g opacity="0.3">
<path d="M37.6278 97.0748C37.6278 97.6354 37.1735 98.0897 36.6128 98.0897C36.0522 98.0897 35.5979 97.6354 35.5979 97.0748C35.5979 96.5144 36.0522 96.0598 36.6128 96.0598C37.1735 96.0598 37.6278 96.5141 37.6278 97.0748Z" fill="white"/>
</g>
<g opacity="0.3">
<path d="M36.1877 94.1462C36.1877 94.4723 35.9234 94.7365 35.5974 94.7365C35.2713 94.7365 35.0071 94.4723 35.0071 94.1462C35.0071 93.8202 35.2713 93.5559 35.5974 93.5559C35.9234 93.5559 36.1877 93.8202 36.1877 94.1462Z" fill="white"/>
</g>
<path d="M32.3998 96.6462C32.4276 96.7541 27.074 101.891 28.4539 102.985C29.8339 104.08 35.6393 101.272 40.5879 97.2752C45.5365 93.2781 50.0571 88.4244 48.82 87.1395C47.583 85.8547 41.3982 89.6586 41.3982 89.6586L42.1373 90.1298C42.1373 90.1298 45.8766 87.7308 47.0594 88.6618C48.2422 89.5931 44.8704 93.2298 40.1121 96.7036C35.3538 100.177 30.7559 102.616 30.0423 101.664C29.3285 100.712 32.6965 97.5379 32.6965 97.5379L32.3998 96.6462Z" fill="#E8505B"/>
<g opacity="0.3">
<path d="M32.3998 96.6462C32.4276 96.7541 27.074 101.891 28.4539 102.985C29.8339 104.08 35.6393 101.272 40.5879 97.2752C45.5365 93.2781 50.0571 88.4244 48.82 87.1395C47.583 85.8547 41.3982 89.6586 41.3982 89.6586L42.1373 90.1298C42.1373 90.1298 45.8766 87.7308 47.0594 88.6618C48.2422 89.5931 44.8704 93.2298 40.1121 96.7036C35.3538 100.177 30.7559 102.616 30.0423 101.664C29.3285 100.712 32.6965 97.5379 32.6965 97.5379L32.3998 96.6462Z" fill="black"/>
</g>
<g opacity="0.3">
<path d="M35.0068 90.7467C35.0571 90.8066 34.6352 91.1647 34.1579 91.8833C33.6802 92.5909 33.1807 93.7113 33.1532 95.0108C33.1289 96.3109 33.5835 97.4506 34.0325 98.1766C34.4808 98.9136 34.888 99.288 34.8352 99.346C34.8037 99.3894 34.3036 99.1008 33.7501 98.3669C33.4746 98.0028 33.2 97.5242 32.9944 96.9508C32.7882 96.3789 32.6609 95.709 32.6715 95.0011C32.6893 94.2938 32.8431 93.6299 33.0718 93.0664C33.3002 92.5017 33.5935 92.0346 33.8833 91.6814C34.4655 90.971 34.9769 90.702 35.0068 90.7467Z" fill="white"/>
</g>
<path d="M110.556 40.55C112.603 38.5885 112.672 35.3392 110.711 33.2924C108.749 31.2456 105.5 31.1765 103.453 33.1379C101.407 35.0994 101.337 38.3487 103.299 40.3955C105.26 42.4423 108.51 42.5115 110.556 40.55Z" fill="#E8505B"/>
<g opacity="0.4">
<path d="M108.678 34.8811C108.689 34.4187 109.073 34.053 109.535 34.064C109.997 34.0749 110.363 34.4586 110.352 34.9207C110.341 35.3828 109.957 35.7488 109.495 35.7378C109.033 35.7269 108.667 35.3432 108.678 34.8811Z" fill="black"/>
</g>
<g opacity="0.4">
<path d="M110.352 36.8343C110.358 36.5653 110.582 36.3525 110.851 36.3588C111.12 36.365 111.332 36.5884 111.326 36.8574C111.32 37.1263 111.096 37.3391 110.828 37.3325C110.559 37.3263 110.346 37.1032 110.352 36.8343Z" fill="black"/>
</g>
<g opacity="0.4">
<path d="M109.699 38.3309C109.798 38.3334 109.877 38.4154 109.875 38.5146C109.872 38.6138 109.79 38.6921 109.691 38.69C109.592 38.6875 109.513 38.6054 109.515 38.5062C109.518 38.407 109.6 38.3287 109.699 38.3309Z" fill="black"/>
</g>
</svg>
