<svg width="168" height="168" viewBox="0 0 168 168" fill="none" xmlns="http://www.w3.org/2000/svg">
<path d="M84 102.634L98.9837 111.852C100.297 112.681 101.641 112.614 103.016 111.652C104.39 110.695 104.911 109.406 104.578 107.783L100.555 90.6564L113.904 79.1779C115.175 78.0519 115.539 76.7472 114.994 75.264C114.449 73.7747 113.35 72.9574 111.697 72.8121L94.2888 71.2138L87.3872 55.2221C86.7455 53.757 85.6164 53.0245 84 53.0245C82.3836 53.0245 81.2545 53.757 80.6128 55.2221L73.7111 71.2138L56.3027 72.803C54.65 72.9544 53.5512 73.7717 53.0063 75.2549C52.4614 76.7382 52.8247 78.0458 54.096 79.1779L67.4452 90.6564L63.4314 107.783C63.0923 109.406 63.6069 110.695 64.9752 111.652C66.3555 112.614 67.7025 112.681 69.0162 111.852L84 102.634ZM57.4197 147.568H35.1075C31.0392 147.568 27.5763 146.139 24.7188 143.281C21.8612 140.424 20.4325 136.964 20.4325 132.902V110.58L4.17737 94.2707C2.74256 92.7995 1.68613 91.171 1.00808 89.3851C0.330027 87.5991 -0.00597368 85.8041 8.03633e-05 84C0.00613441 82.1959 0.345161 80.4009 1.01716 78.6149C1.68916 76.829 2.73954 75.2004 4.16829 73.7293L20.4325 57.4197V35.1075C20.4325 31.0392 21.8612 27.5763 24.7188 24.7188C27.5763 21.8612 31.0392 20.4325 35.1075 20.4325H57.4197L73.7293 4.17737C75.2004 2.74256 76.829 1.68613 78.6149 1.00808C80.4009 0.330027 82.1959 -0.00597368 84 8.03633e-05C85.8041 0.00613441 87.5991 0.345161 89.3851 1.01716C91.171 1.68916 92.7995 2.73954 94.2707 4.16829L110.58 20.4325H132.902C136.958 20.4325 140.418 21.8612 143.281 24.7188C146.139 27.5763 147.568 31.0392 147.568 35.1075V57.4197L163.823 73.7293C165.257 75.2004 166.314 76.829 166.992 78.6149C167.67 80.4009 168.006 82.1959 168 84C167.994 85.8041 167.658 87.5991 166.992 89.3851C166.326 91.171 165.273 92.7995 163.832 94.2707L147.568 110.58V132.902C147.568 136.958 146.139 140.418 143.281 143.281C140.424 146.139 136.964 147.568 132.902 147.568H110.58L94.2707 163.823C92.7995 165.257 91.171 166.314 89.3851 166.992C87.5991 167.67 85.8041 168.006 84 168C82.1959 167.994 80.4009 167.658 78.6149 166.992C76.829 166.326 75.2004 165.273 73.7293 163.832L57.4197 147.568ZM61.2973 138.486L79.9862 157.175C81.0335 158.223 82.3715 158.746 84 158.746C85.6285 158.746 86.9665 158.223 88.0138 157.175L106.703 138.486H132.902C134.53 138.486 135.868 137.963 136.915 136.915C137.963 135.868 138.486 134.53 138.486 132.902V106.703L157.175 88.0138C158.223 86.9665 158.746 85.6285 158.746 84C158.746 82.3715 158.223 81.0335 157.175 79.9862L138.486 61.2973V35.1075C138.486 33.4729 137.963 32.1319 136.915 31.0846C135.868 30.0372 134.53 29.5136 132.902 29.5136H106.703L88.0138 10.8247C86.9725 9.78342 85.6346 9.26277 84 9.26277C82.3654 9.26277 81.0275 9.78645 79.9862 10.8338L61.2973 29.5136H35.1075C33.4729 29.5136 32.1319 30.0372 31.0846 31.0846C30.0372 32.1319 29.5136 33.4729 29.5136 35.1075V61.2973L10.8247 79.9862C9.77737 81.0335 9.25369 82.3715 9.25369 84C9.25369 85.6285 9.77737 86.9665 10.8247 88.0138L29.5136 106.703V132.902C29.5136 134.53 30.0372 135.868 31.0846 136.915C32.1319 137.963 33.4729 138.486 35.1075 138.486H61.2973Z" fill="black"/>
</svg>
