<svg width="29" height="29" viewBox="0 0 29 29" fill="none" xmlns="http://www.w3.org/2000/svg">
<g id="icons">
<path id="Vector" d="M13.2917 4.83323H4.83337C4.19243 4.83323 3.57774 5.08784 3.12453 5.54105C2.67131 5.99427 2.4167 6.60896 2.4167 7.2499V24.1666C2.4167 24.8075 2.67131 25.4222 3.12453 25.8754C3.57774 26.3286 4.19243 26.5832 4.83337 26.5832H21.75C22.391 26.5832 23.0057 26.3286 23.4589 25.8754C23.9121 25.4222 24.1667 24.8075 24.1667 24.1666V15.7082" stroke="white" stroke-width="2.41464" stroke-linecap="round" stroke-linejoin="round"/>
<path id="Vector_2" d="M22.3542 3.02071C22.8349 2.54 23.4869 2.26994 24.1667 2.26994C24.8465 2.26994 25.4985 2.54 25.9792 3.02071C26.4599 3.50141 26.73 4.15339 26.73 4.83321C26.73 5.51302 26.4599 6.165 25.9792 6.64571L14.5 18.1249L9.6667 19.3332L10.875 14.4999L22.3542 3.02071Z" fill="white" stroke="white" stroke-width="2.41464" stroke-linecap="round" stroke-linejoin="round"/>
</g>
</svg>
