<svg width="24" height="24" viewBox="0 0 24 24" fill="none" xmlns="http://www.w3.org/2000/svg">
<path fill-rule="evenodd" clip-rule="evenodd" d="M4 4.73413C4 3.93848 4.31607 3.17542 4.87868 2.61281C5.44129 2.0502 6.20435 1.73413 7 1.73413H17C17.7956 1.73413 18.5587 2.0502 19.1213 2.61281C19.6839 3.17542 20 3.93848 20 4.73413V20.7621C20 21.9821 18.62 22.6921 17.628 21.9831L12 17.9631L6.372 21.9831C5.379 22.6931 4 21.9831 4 20.7631V4.73413ZM7 3.73413C6.73478 3.73413 6.48043 3.83949 6.29289 4.02702C6.10536 4.21456 6 4.46891 6 4.73413V19.7911L11.128 16.1281C11.3824 15.9464 11.6873 15.8486 12 15.8486C12.3127 15.8486 12.6176 15.9464 12.872 16.1281L18 19.7911V4.73413C18 4.46891 17.8946 4.21456 17.7071 4.02702C17.5196 3.83949 17.2652 3.73413 17 3.73413H7Z" fill="#424242"/>
</svg>
